<?xml version="1.0" encoding="UTF-8" standalone="no"?>
<!DOCTYPE svg PUBLIC "-//W3C//DTD SVG 1.1//EN"
 "http://www.w3.org/Graphics/SVG/1.1/DTD/svg11.dtd">
<!-- Generated by graphviz version 15.1.0 (20260618.0150)
 -->
<!-- Title: G Pages: 1 -->
<svg width="1544pt" height="1805pt"
 viewBox="0.00 0.00 1544.00 1805.00" xmlns="http://www.w3.org/2000/svg" xmlns:xlink="http://www.w3.org/1999/xlink">
<g id="graph0" class="graph" transform="scale(1 1) rotate(0) translate(21.6 1783.45)">
<title>G</title>
<polygon fill="#111111" stroke="none" points="-21.6,21.6 -21.6,-1783.45 1522.35,-1783.45 1522.35,21.6 -21.6,21.6"/>
<!-- App.jsx -->
<g id="node1" class="node">
<title>App.jsx</title>
<path fill="none" stroke="#c6c5fe" d="M438.08,-831.85C438.08,-831.85 393.67,-831.85 393.67,-831.85 389.71,-831.85 385.75,-827.9 385.75,-823.94 385.75,-823.94 385.75,-816.02 385.75,-816.02 385.75,-812.06 389.71,-808.1 393.67,-808.1 393.67,-808.1 438.08,-808.1 438.08,-808.1 442.04,-808.1 446,-812.06 446,-816.02 446,-816.02 446,-823.94 446,-823.94 446,-827.9 442.04,-831.85 438.08,-831.85"/>
<text xml:space="preserve" text-anchor="middle" x="415.88" y="-814.55" font-family="Arial" font-size="14.00" fill="#c6c5fe">App.jsx</text>
</g>
<!-- components/ProfileEditor.jsx -->
<g id="node2" class="node">
<title>components/ProfileEditor.jsx</title>
<path fill="none" stroke="#c6c5fe" d="M1282.21,-364.85C1282.21,-364.85 1111.04,-364.85 1111.04,-364.85 1107.08,-364.85 1103.12,-360.9 1103.12,-356.94 1103.12,-356.94 1103.12,-349.02 1103.12,-349.02 1103.12,-345.06 1107.08,-341.1 1111.04,-341.1 1111.04,-341.1 1282.21,-341.1 1282.21,-341.1 1286.17,-341.1 1290.12,-345.06 1290.12,-349.02 1290.12,-349.02 1290.12,-356.94 1290.12,-356.94 1290.12,-360.9 1286.17,-364.85 1282.21,-364.85"/>
<text xml:space="preserve" text-anchor="middle" x="1196.62" y="-347.55" font-family="Arial" font-size="14.00" fill="#c6c5fe">components/ProfileEditor.jsx</text>
</g>
<!-- App.jsx&#45;&gt;components/ProfileEditor.jsx -->
<g id="edge1" class="edge">
<title>App.jsx&#45;&gt;components/ProfileEditor.jsx</title>
<path fill="none" stroke="#757575" d="M419.62,-807.73C429.45,-766.91 467.05,-634.77 553.25,-575.98 576.27,-560.28 1029.34,-526.4 1050.25,-507.98 1096.52,-467.22 1041.09,-415.97 1086.25,-373.98 1088.39,-371.99 1090.65,-370.17 1093.02,-368.49"/>
<polygon fill="#757575" stroke="#757575" points="1094.56,-371.65 1101.35,-363.51 1090.97,-365.64 1094.56,-371.65"/>
</g>
<!-- layouts/MainLayout.jsx -->
<g id="node3" class="node">
<title>layouts/MainLayout.jsx</title>
<path fill="none" stroke="#c6c5fe" d="M1265.33,-1338.85C1265.33,-1338.85 1127.92,-1338.85 1127.92,-1338.85 1123.96,-1338.85 1120,-1334.9 1120,-1330.94 1120,-1330.94 1120,-1323.02 1120,-1323.02 1120,-1319.06 1123.96,-1315.1 1127.92,-1315.1 1127.92,-1315.1 1265.33,-1315.1 1265.33,-1315.1 1269.29,-1315.1 1273.25,-1319.06 1273.25,-1323.02 1273.25,-1323.02 1273.25,-1330.94 1273.25,-1330.94 1273.25,-1334.9 1269.29,-1338.85 1265.33,-1338.85"/>
<text xml:space="preserve" text-anchor="middle" x="1196.62" y="-1321.55" font-family="Arial" font-size="14.00" fill="#c6c5fe">layouts/MainLayout.jsx</text>
</g>
<!-- App.jsx&#45;&gt;layouts/MainLayout.jsx -->
<g id="edge2" class="edge">
<title>App.jsx&#45;&gt;layouts/MainLayout.jsx</title>
<path fill="none" stroke="#757575" d="M418.69,-831.97C428.82,-897.46 480.72,-1211.02 553.25,-1269.98 636.21,-1337.41 952.87,-1335.96 1108.39,-1330.87"/>
<polygon fill="#757575" stroke="#757575" points="1108.37,-1334.37 1118.25,-1330.53 1108.13,-1327.37 1108.37,-1334.37"/>
</g>
<!-- layouts/PublicLayout.jsx -->
<g id="node4" class="node">
<title>layouts/PublicLayout.jsx</title>
<path fill="none" stroke="#c6c5fe" d="M718.08,-688.85C718.08,-688.85 573.92,-688.85 573.92,-688.85 569.96,-688.85 566,-684.9 566,-680.94 566,-680.94 566,-673.02 566,-673.02 566,-669.06 569.96,-665.1 573.92,-665.1 573.92,-665.1 718.08,-665.1 718.08,-665.1 722.04,-665.1 726,-669.06 726,-673.02 726,-673.02 726,-680.94 726,-680.94 726,-684.9 722.04,-688.85 718.08,-688.85"/>
<text xml:space="preserve" text-anchor="middle" x="646" y="-671.55" font-family="Arial" font-size="14.00" fill="#c6c5fe">layouts/PublicLayout.jsx</text>
</g>
<!-- App.jsx&#45;&gt;layouts/PublicLayout.jsx -->
<g id="edge3" class="edge">
<title>App.jsx&#45;&gt;layouts/PublicLayout.jsx</title>
<path fill="none" stroke="#757575" d="M426.72,-807.73C447.39,-782.9 497.95,-726.59 553.25,-697.98 556.69,-696.2 560.28,-694.57 563.97,-693.07"/>
<polygon fill="#757575" stroke="#757575" points="564.93,-696.45 573.13,-689.74 562.53,-689.87 564.93,-696.45"/>
</g>
<!-- pages/About.jsx -->
<g id="node5" class="node">
<title>pages/About.jsx</title>
<path fill="none" stroke="#cfffac" d="M694.08,-1092.85C694.08,-1092.85 597.92,-1092.85 597.92,-1092.85 593.96,-1092.85 590,-1088.9 590,-1084.94 590,-1084.94 590,-1077.02 590,-1077.02 590,-1073.06 593.96,-1069.1 597.92,-1069.1 597.92,-1069.1 694.08,-1069.1 694.08,-1069.1 698.04,-1069.1 702,-1073.06 702,-1077.02 702,-1077.02 702,-1084.94 702,-1084.94 702,-1088.9 698.04,-1092.85 694.08,-1092.85"/>
<text xml:space="preserve" text-anchor="middle" x="646" y="-1075.55" font-family="Arial" font-size="14.00" fill="#cfffac">pages/About.jsx</text>
</g>
<!-- App.jsx&#45;&gt;pages/About.jsx -->
<g id="edge4" class="edge">
<title>App.jsx&#45;&gt;pages/About.jsx</title>
<path fill="none" stroke="#757575" d="M420.33,-832.15C431.99,-871.01 473.72,-993.19 553.25,-1054.98 560.86,-1060.89 569.76,-1065.46 578.96,-1068.99"/>
<polygon fill="#757575" stroke="#757575" points="577.81,-1072.3 588.41,-1072.19 580.06,-1065.67 577.81,-1072.3"/>
</g>
<!-- pages/AcceptInvitation.jsx -->
<g id="node6" class="node">
<title>pages/AcceptInvitation.jsx</title>
<path fill="none" stroke="#c6c5fe" d="M990.58,-120.85C990.58,-120.85 834.42,-120.85 834.42,-120.85 830.46,-120.85 826.5,-116.9 826.5,-112.94 826.5,-112.94 826.5,-105.02 826.5,-105.02 826.5,-101.06 830.46,-97.1 834.42,-97.1 834.42,-97.1 990.58,-97.1 990.58,-97.1 994.54,-97.1 998.5,-101.06 998.5,-105.02 998.5,-105.02 998.5,-112.94 998.5,-112.94 998.5,-116.9 994.54,-120.85 990.58,-120.85"/>
<text xml:space="preserve" text-anchor="middle" x="912.5" y="-103.55" font-family="Arial" font-size="14.00" fill="#c6c5fe">pages/AcceptInvitation.jsx</text>
</g>
<!-- App.jsx&#45;&gt;pages/AcceptInvitation.jsx -->
<g id="edge5" class="edge">
<title>App.jsx&#45;&gt;pages/AcceptInvitation.jsx</title>
<path fill="none" stroke="#757575" d="M417.01,-807.64C418.3,-753.04 431.14,-531.21 553.25,-423.98 616.49,-368.45 681.13,-447.31 738.75,-385.98 817.42,-302.24 694.02,-211.74 774.75,-129.98 785.75,-118.84 800.01,-112.01 815.17,-108.02"/>
<polygon fill="#757575" stroke="#757575" points="815.81,-111.46 824.84,-105.92 814.33,-104.62 815.81,-111.46"/>
</g>
<!-- pages/Activities.jsx -->
<g id="node7" class="node">
<title>pages/Activities.jsx</title>
<path fill="none" stroke="#c6c5fe" d="M969.58,-578.85C969.58,-578.85 855.42,-578.85 855.42,-578.85 851.46,-578.85 847.5,-574.9 847.5,-570.94 847.5,-570.94 847.5,-563.02 847.5,-563.02 847.5,-559.06 851.46,-555.1 855.42,-555.1 855.42,-555.1 969.58,-555.1 969.58,-555.1 973.54,-555.1 977.5,-559.06 977.5,-563.02 977.5,-563.02 977.5,-570.94 977.5,-570.94 977.5,-574.9 973.54,-578.85 969.58,-578.85"/>
<text xml:space="preserve" text-anchor="middle" x="912.5" y="-561.55" font-family="Arial" font-size="14.00" fill="#c6c5fe">pages/Activities.jsx</text>
</g>
<!-- App.jsx&#45;&gt;pages/Activities.jsx -->
<g id="edge6" class="edge">
<title>App.jsx&#45;&gt;pages/Activities.jsx</title>
<path fill="none" stroke="#757575" d="M423.2,-807.69C439.85,-776.68 488.12,-694.98 553.25,-655.98 625.45,-612.74 664.08,-656.8 738.75,-617.98 758.28,-607.83 754.84,-593.36 774.75,-583.98 793.56,-575.12 815.36,-570.31 835.95,-567.83"/>
<polygon fill="#757575" stroke="#757575" points="836.14,-571.33 845.73,-566.84 835.43,-564.37 836.14,-571.33"/>
</g>
<!-- pages/AdminHome.jsx -->
<g id="node8" class="node">
<title>pages/AdminHome.jsx</title>
<path fill="none" stroke="#cfffac" d="M714.33,-1012.85C714.33,-1012.85 577.67,-1012.85 577.67,-1012.85 573.71,-1012.85 569.75,-1008.9 569.75,-1004.94 569.75,-1004.94 569.75,-997.02 569.75,-997.02 569.75,-993.06 573.71,-989.1 577.67,-989.1 577.67,-989.1 714.33,-989.1 714.33,-989.1 718.29,-989.1 722.25,-993.06 722.25,-997.02 722.25,-997.02 722.25,-1004.94 722.25,-1004.94 722.25,-1008.9 718.29,-1012.85 714.33,-1012.85"/>
<text xml:space="preserve" text-anchor="middle" x="646" y="-995.55" font-family="Arial" font-size="14.00" fill="#cfffac">pages/AdminHome.jsx</text>
</g>
<!-- App.jsx&#45;&gt;pages/AdminHome.jsx -->
<g id="edge7" class="edge">
<title>App.jsx&#45;&gt;pages/AdminHome.jsx</title>
<path fill="none" stroke="#757575" d="M424.08,-832.17C442.01,-861.44 491.71,-936.16 553.25,-974.98 559.22,-978.75 565.75,-981.98 572.49,-984.75"/>
<polygon fill="#757575" stroke="#757575" points="571.18,-988 581.77,-988.22 573.63,-981.44 571.18,-988"/>
</g>
<!-- pages/Bookings.jsx -->
<g id="node9" class="node">
<title>pages/Bookings.jsx</title>
<path fill="none" stroke="#c6c5fe" d="M704.21,-1260.85C704.21,-1260.85 587.79,-1260.85 587.79,-1260.85 583.83,-1260.85 579.88,-1256.9 579.88,-1252.94 579.88,-1252.94 579.88,-1245.02 579.88,-1245.02 579.88,-1241.06 583.83,-1237.1 587.79,-1237.1 587.79,-1237.1 704.21,-1237.1 704.21,-1237.1 708.17,-1237.1 712.12,-1241.06 712.12,-1245.02 712.12,-1245.02 712.12,-1252.94 712.12,-1252.94 712.12,-1256.9 708.17,-1260.85 704.21,-1260.85"/>
<text xml:space="preserve" text-anchor="middle" x="646" y="-1243.55" font-family="Arial" font-size="14.00" fill="#c6c5fe">pages/Bookings.jsx</text>
</g>
<!-- App.jsx&#45;&gt;pages/Bookings.jsx -->
<g id="edge8" class="edge">
<title>App.jsx&#45;&gt;pages/Bookings.jsx</title>
<path fill="none" stroke="#757575" d="M416.93,-832.24C417.86,-887.51 429.33,-1115.59 553.25,-1227.98 557.94,-1232.23 563.31,-1235.68 569.05,-1238.47"/>
<polygon fill="#757575" stroke="#757575" points="567.73,-1241.71 578.32,-1242.23 570.37,-1235.22 567.73,-1241.71"/>
</g>
<!-- pages/CompanyDashboard.jsx -->
<g id="node10" class="node">
<title>pages/CompanyDashboard.jsx</title>
<path fill="none" stroke="#c6c5fe" d="M1005.21,-78.85C1005.21,-78.85 819.79,-78.85 819.79,-78.85 815.83,-78.85 811.88,-74.9 811.88,-70.94 811.88,-70.94 811.88,-63.02 811.88,-63.02 811.88,-59.06 815.83,-55.1 819.79,-55.1 819.79,-55.1 1005.21,-55.1 1005.21,-55.1 1009.17,-55.1 1013.12,-59.06 1013.12,-63.02 1013.12,-63.02 1013.12,-70.94 1013.12,-70.94 1013.12,-74.9 1009.17,-78.85 1005.21,-78.85"/>
<text xml:space="preserve" text-anchor="middle" x="912.5" y="-61.55" font-family="Arial" font-size="14.00" fill="#c6c5fe">pages/CompanyDashboard.jsx</text>
</g>
<!-- App.jsx&#45;&gt;pages/CompanyDashboard.jsx -->
<g id="edge9" class="edge">
<title>App.jsx&#45;&gt;pages/CompanyDashboard.jsx</title>
<path fill="none" stroke="#757575" d="M418.35,-807.78C427.18,-736.6 475.4,-375.64 553.25,-301.98 614.38,-244.14 679.25,-323.5 738.75,-263.98 795.2,-207.51 716.92,-143.02 774.75,-87.98 782.29,-80.8 791.19,-75.46 800.78,-71.52"/>
<polygon fill="#757575" stroke="#757575" points="801.72,-74.9 810,-68.29 799.41,-68.3 801.72,-74.9"/>
</g>
<!-- pages/CreateActivity.jsx -->
<g id="node11" class="node">
<title>pages/CreateActivity.jsx</title>
<path fill="none" stroke="#c6c5fe" d="M717.71,-932.85C717.71,-932.85 574.29,-932.85 574.29,-932.85 570.33,-932.85 566.38,-928.9 566.38,-924.94 566.38,-924.94 566.38,-917.02 566.38,-917.02 566.38,-913.06 570.33,-909.1 574.29,-909.1 574.29,-909.1 717.71,-909.1 717.71,-909.1 721.67,-909.1 725.62,-913.06 725.62,-917.02 725.62,-917.02 725.62,-924.94 725.62,-924.94 725.62,-928.9 721.67,-932.85 717.71,-932.85"/>
<text xml:space="preserve" text-anchor="middle" x="646" y="-915.55" font-family="Arial" font-size="14.00" fill="#c6c5fe">pages/CreateActivity.jsx</text>
</g>
<!-- App.jsx&#45;&gt;pages/CreateActivity.jsx -->
<g id="edge10" class="edge">
<title>App.jsx&#45;&gt;pages/CreateActivity.jsx</title>
<path fill="none" stroke="#757575" d="M433.65,-832.13C458.56,-849.61 507.32,-881.76 553.25,-899.98 558.43,-902.04 563.86,-903.92 569.39,-905.63"/>
<polygon fill="#757575" stroke="#757575" points="568.04,-908.89 578.62,-908.31 569.99,-902.17 568.04,-908.89"/>
</g>
<!-- pages/CreateCompany.jsx -->
<g id="node12" class="node">
<title>pages/CreateCompany.jsx</title>
<path fill="none" stroke="#c6c5fe" d="M725.58,-1218.85C725.58,-1218.85 566.42,-1218.85 566.42,-1218.85 562.46,-1218.85 558.5,-1214.9 558.5,-1210.94 558.5,-1210.94 558.5,-1203.02 558.5,-1203.02 558.5,-1199.06 562.46,-1195.1 566.42,-1195.1 566.42,-1195.1 725.58,-1195.1 725.58,-1195.1 729.54,-1195.1 733.5,-1199.06 733.5,-1203.02 733.5,-1203.02 733.5,-1210.94 733.5,-1210.94 733.5,-1214.9 729.54,-1218.85 725.58,-1218.85"/>
<text xml:space="preserve" text-anchor="middle" x="646" y="-1201.55" font-family="Arial" font-size="14.00" fill="#c6c5fe">pages/CreateCompany.jsx</text>
</g>
<!-- App.jsx&#45;&gt;pages/CreateCompany.jsx -->
<g id="edge11" class="edge">
<title>App.jsx&#45;&gt;pages/CreateCompany.jsx</title>
<path fill="none" stroke="#757575" d="M417.44,-832.03C420.53,-883.48 439.78,-1086.54 553.25,-1185.98 554.36,-1186.95 555.5,-1187.88 556.67,-1188.76"/>
<polygon fill="#757575" stroke="#757575" points="554.62,-1191.61 564.95,-1193.99 558.36,-1185.69 554.62,-1191.61"/>
</g>
<!-- pages/CreateProgram.jsx -->
<g id="node13" class="node">
<title>pages/CreateProgram.jsx</title>
<path fill="none" stroke="#c6c5fe" d="M722.96,-890.85C722.96,-890.85 569.04,-890.85 569.04,-890.85 565.08,-890.85 561.12,-886.9 561.12,-882.94 561.12,-882.94 561.12,-875.02 561.12,-875.02 561.12,-871.06 565.08,-867.1 569.04,-867.1 569.04,-867.1 722.96,-867.1 722.96,-867.1 726.92,-867.1 730.88,-871.06 730.88,-875.02 730.88,-875.02 730.88,-882.94 730.88,-882.94 730.88,-886.9 726.92,-890.85 722.96,-890.85"/>
<text xml:space="preserve" text-anchor="middle" x="646" y="-873.55" font-family="Arial" font-size="14.00" fill="#c6c5fe">pages/CreateProgram.jsx</text>
</g>
<!-- App.jsx&#45;&gt;pages/CreateProgram.jsx -->
<g id="edge12" class="edge">
<title>App.jsx&#45;&gt;pages/CreateProgram.jsx</title>
<path fill="none" stroke="#757575" d="M446.23,-827.57C481.51,-836.7 541.55,-852.22 586.44,-863.83"/>
<polygon fill="#757575" stroke="#757575" points="585.47,-867.2 596.03,-866.31 587.23,-860.42 585.47,-867.2"/>
</g>
<!-- pages/CreateSchedule.jsx -->
<g id="node14" class="node">
<title>pages/CreateSchedule.jsx</title>
<path fill="none" stroke="#c6c5fe" d="M724.83,-1134.85C724.83,-1134.85 567.17,-1134.85 567.17,-1134.85 563.21,-1134.85 559.25,-1130.9 559.25,-1126.94 559.25,-1126.94 559.25,-1119.02 559.25,-1119.02 559.25,-1115.06 563.21,-1111.1 567.17,-1111.1 567.17,-1111.1 724.83,-1111.1 724.83,-1111.1 728.79,-1111.1 732.75,-1115.06 732.75,-1119.02 732.75,-1119.02 732.75,-1126.94 732.75,-1126.94 732.75,-1130.9 728.79,-1134.85 724.83,-1134.85"/>
<text xml:space="preserve" text-anchor="middle" x="646" y="-1117.55" font-family="Arial" font-size="14.00" fill="#c6c5fe">pages/CreateSchedule.jsx</text>
</g>
<!-- App.jsx&#45;&gt;pages/CreateSchedule.jsx -->
<g id="edge13" class="edge">
<title>App.jsx&#45;&gt;pages/CreateSchedule.jsx</title>
<path fill="none" stroke="#757575" d="M418.92,-832.19C426.98,-876.25 460.73,-1028.28 553.25,-1101.98 554.74,-1103.17 556.29,-1104.29 557.89,-1105.36"/>
<polygon fill="#757575" stroke="#757575" points="555.74,-1108.16 566.16,-1110.06 559.19,-1102.07 555.74,-1108.16"/>
</g>
<!-- pages/GuideHome.jsx -->
<g id="node15" class="node">
<title>pages/GuideHome.jsx</title>
<path fill="none" stroke="#cfffac" d="M713.21,-730.85C713.21,-730.85 578.79,-730.85 578.79,-730.85 574.83,-730.85 570.88,-726.9 570.88,-722.94 570.88,-722.94 570.88,-715.02 570.88,-715.02 570.88,-711.06 574.83,-707.1 578.79,-707.1 578.79,-707.1 713.21,-707.1 713.21,-707.1 717.17,-707.1 721.12,-711.06 721.12,-715.02 721.12,-715.02 721.12,-722.94 721.12,-722.94 721.12,-726.9 717.17,-730.85 713.21,-730.85"/>
<text xml:space="preserve" text-anchor="middle" x="646" y="-713.55" font-family="Arial" font-size="14.00" fill="#cfffac">pages/GuideHome.jsx</text>
</g>
<!-- App.jsx&#45;&gt;pages/GuideHome.jsx -->
<g id="edge14" class="edge">
<title>App.jsx&#45;&gt;pages/GuideHome.jsx</title>
<path fill="none" stroke="#757575" d="M433.65,-807.83C458.56,-790.35 507.32,-758.2 553.25,-739.98 558.43,-737.92 563.86,-736.04 569.39,-734.32"/>
<polygon fill="#757575" stroke="#757575" points="569.99,-737.79 578.62,-731.65 568.04,-731.07 569.99,-737.79"/>
</g>
<!-- pages/Home.jsx -->
<g id="node16" class="node">
<title>pages/Home.jsx</title>
<path fill="none" stroke="#c6c5fe" d="M694.83,-456.85C694.83,-456.85 597.17,-456.85 597.17,-456.85 593.21,-456.85 589.25,-452.9 589.25,-448.94 589.25,-448.94 589.25,-441.02 589.25,-441.02 589.25,-437.06 593.21,-433.1 597.17,-433.1 597.17,-433.1 694.83,-433.1 694.83,-433.1 698.79,-433.1 702.75,-437.06 702.75,-441.02 702.75,-441.02 702.75,-448.94 702.75,-448.94 702.75,-452.9 698.79,-456.85 694.83,-456.85"/>
<text xml:space="preserve" text-anchor="middle" x="646" y="-439.55" font-family="Arial" font-size="14.00" fill="#c6c5fe">pages/Home.jsx</text>
</g>
<!-- App.jsx&#45;&gt;pages/Home.jsx -->
<g id="edge15" class="edge">
<title>App.jsx&#45;&gt;pages/Home.jsx</title>
<path fill="none" stroke="#757575" d="M419.9,-807.65C431.15,-763.66 474.12,-611.74 553.25,-512.98 569.61,-492.56 593.49,-475.12 612.79,-463.01"/>
<polygon fill="#757575" stroke="#757575" points="614.37,-466.15 621.1,-457.97 610.74,-460.16 614.37,-466.15"/>
</g>
<!-- pages/Login.jsx -->
<g id="node17" class="node">
<title>pages/Login.jsx</title>
<path fill="none" stroke="#c6c5fe" d="M959.46,-1012.85C959.46,-1012.85 865.54,-1012.85 865.54,-1012.85 861.58,-1012.85 857.62,-1008.9 857.62,-1004.94 857.62,-1004.94 857.62,-997.02 857.62,-997.02 857.62,-993.06 861.58,-989.1 865.54,-989.1 865.54,-989.1 959.46,-989.1 959.46,-989.1 963.42,-989.1 967.38,-993.06 967.38,-997.02 967.38,-997.02 967.38,-1004.94 967.38,-1004.94 967.38,-1008.9 963.42,-1012.85 959.46,-1012.85"/>
<text xml:space="preserve" text-anchor="middle" x="912.5" y="-995.55" font-family="Arial" font-size="14.00" fill="#c6c5fe">pages/Login.jsx</text>
</g>
<!-- App.jsx&#45;&gt;pages/Login.jsx -->
<g id="edge16" class="edge">
<title>App.jsx&#45;&gt;pages/Login.jsx</title>
<path fill="none" stroke="#757575" d="M426.27,-832.13C446.47,-857.28 496.8,-914.95 553.25,-941.98 579.17,-954.39 749.91,-979.05 846.02,-992.22"/>
<polygon fill="#757575" stroke="#757575" points="845.48,-995.68 855.86,-993.56 846.42,-988.74 845.48,-995.68"/>
</g>
<!-- pages/ManagePrograms.jsx -->
<g id="node18" class="node">
<title>pages/ManagePrograms.jsx</title>
<path fill="none" stroke="#cfffac" d="M730.83,-608.85C730.83,-608.85 561.17,-608.85 561.17,-608.85 557.21,-608.85 553.25,-604.9 553.25,-600.94 553.25,-600.94 553.25,-593.02 553.25,-593.02 553.25,-589.06 557.21,-585.1 561.17,-585.1 561.17,-585.1 730.83,-585.1 730.83,-585.1 734.79,-585.1 738.75,-589.06 738.75,-593.02 738.75,-593.02 738.75,-600.94 738.75,-600.94 738.75,-604.9 734.79,-608.85 730.83,-608.85"/>
<text xml:space="preserve" text-anchor="middle" x="646" y="-591.55" font-family="Arial" font-size="14.00" fill="#cfffac">pages/ManagePrograms.jsx</text>
</g>
<!-- App.jsx&#45;&gt;pages/ManagePrograms.jsx -->
<g id="edge17" class="edge">
<title>App.jsx&#45;&gt;pages/ManagePrograms.jsx</title>
<path fill="none" stroke="#757575" d="M421.83,-807.61C436.39,-772.85 482.53,-673.54 553.25,-622.98 558.3,-619.37 563.84,-616.26 569.62,-613.58"/>
<polygon fill="#757575" stroke="#757575" points="570.91,-616.83 578.82,-609.78 568.24,-610.36 570.91,-616.83"/>
</g>
<!-- pages/ManageUsers.jsx -->
<g id="node19" class="node">
<title>pages/ManageUsers.jsx</title>
<path fill="none" stroke="#c6c5fe" d="M1269.46,-1051.85C1269.46,-1051.85 1123.79,-1051.85 1123.79,-1051.85 1119.83,-1051.85 1115.88,-1047.9 1115.88,-1043.94 1115.88,-1043.94 1115.88,-1036.02 1115.88,-1036.02 1115.88,-1032.06 1119.83,-1028.1 1123.79,-1028.1 1123.79,-1028.1 1269.46,-1028.1 1269.46,-1028.1 1273.42,-1028.1 1277.38,-1032.06 1277.38,-1036.02 1277.38,-1036.02 1277.38,-1043.94 1277.38,-1043.94 1277.38,-1047.9 1273.42,-1051.85 1269.46,-1051.85"/>
<text xml:space="preserve" text-anchor="middle" x="1196.62" y="-1034.55" font-family="Arial" font-size="14.00" fill="#c6c5fe">pages/ManageUsers.jsx</text>
</g>
<!-- App.jsx&#45;&gt;pages/ManageUsers.jsx -->
<g id="edge18" class="edge">
<title>App.jsx&#45;&gt;pages/ManageUsers.jsx</title>
<path fill="none" stroke="#757575" d="M420.69,-832.26C432.9,-869.12 474.82,-978.88 553.25,-1021.98 645.36,-1072.6 949.84,-1058.46 1104.2,-1047.46"/>
<polygon fill="#757575" stroke="#757575" points="1104.27,-1050.97 1113.99,-1046.75 1103.76,-1043.99 1104.27,-1050.97"/>
</g>
<!-- pages/MyCompanies.jsx -->
<g id="node20" class="node">
<title>pages/MyCompanies.jsx</title>
<path fill="none" stroke="#c6c5fe" d="M1270.96,-894.85C1270.96,-894.85 1122.29,-894.85 1122.29,-894.85 1118.33,-894.85 1114.38,-890.9 1114.38,-886.94 1114.38,-886.94 1114.38,-879.02 1114.38,-879.02 1114.38,-875.06 1118.33,-871.1 1122.29,-871.1 1122.29,-871.1 1270.96,-871.1 1270.96,-871.1 1274.92,-871.1 1278.88,-875.06 1278.88,-879.02 1278.88,-879.02 1278.88,-886.94 1278.88,-886.94 1278.88,-890.9 1274.92,-894.85 1270.96,-894.85"/>
<text xml:space="preserve" text-anchor="middle" x="1196.62" y="-877.55" font-family="Arial" font-size="14.00" fill="#c6c5fe">pages/MyCompanies.jsx</text>
</g>
<!-- App.jsx&#45;&gt;pages/MyCompanies.jsx -->
<g id="edge19" class="edge">
<title>App.jsx&#45;&gt;pages/MyCompanies.jsx</title>
<path fill="none" stroke="#757575" d="M446.26,-821.79C536.54,-827.42 817.75,-845.57 1050.25,-866.98 1067.26,-868.55 1085.36,-870.39 1102.82,-872.27"/>
<polygon fill="#757575" stroke="#757575" points="1102.35,-875.74 1112.67,-873.34 1103.11,-868.78 1102.35,-875.74"/>
</g>
<!-- pages/Programs.jsx -->
<g id="node21" class="node">
<title>pages/Programs.jsx</title>
<path fill="none" stroke="#c6c5fe" d="M706.08,-772.85C706.08,-772.85 585.92,-772.85 585.92,-772.85 581.96,-772.85 578,-768.9 578,-764.94 578,-764.94 578,-757.02 578,-757.02 578,-753.06 581.96,-749.1 585.92,-749.1 585.92,-749.1 706.08,-749.1 706.08,-749.1 710.04,-749.1 714,-753.06 714,-757.02 714,-757.02 714,-764.94 714,-764.94 714,-768.9 710.04,-772.85 706.08,-772.85"/>
<text xml:space="preserve" text-anchor="middle" x="646" y="-755.55" font-family="Arial" font-size="14.00" fill="#c6c5fe">pages/Programs.jsx</text>
</g>
<!-- App.jsx&#45;&gt;pages/Programs.jsx -->
<g id="edge20" class="edge">
<title>App.jsx&#45;&gt;pages/Programs.jsx</title>
<path fill="none" stroke="#757575" d="M446.23,-812.39C481.51,-803.26 541.55,-787.73 586.44,-776.13"/>
<polygon fill="#757575" stroke="#757575" points="587.23,-779.54 596.03,-773.64 585.47,-772.76 587.23,-779.54"/>
</g>
<!-- pages/Register.jsx -->
<g id="node22" class="node">
<title>pages/Register.jsx</title>
<path fill="none" stroke="#cfffac" d="M701.21,-376.85C701.21,-376.85 590.79,-376.85 590.79,-376.85 586.83,-376.85 582.88,-372.9 582.88,-368.94 582.88,-368.94 582.88,-361.02 582.88,-361.02 582.88,-357.06 586.83,-353.1 590.79,-353.1 590.79,-353.1 701.21,-353.1 701.21,-353.1 705.17,-353.1 709.12,-357.06 709.12,-361.02 709.12,-361.02 709.12,-368.94 709.12,-368.94 709.12,-372.9 705.17,-376.85 701.21,-376.85"/>
<text xml:space="preserve" text-anchor="middle" x="646" y="-359.55" font-family="Arial" font-size="14.00" fill="#cfffac">pages/Register.jsx</text>
</g>
<!-- App.jsx&#45;&gt;pages/Register.jsx -->
<g id="edge21" class="edge">
<title>App.jsx&#45;&gt;pages/Register.jsx</title>
<path fill="none" stroke="#757575" d="M416.84,-807.64C417.36,-750.94 427.24,-513.06 553.25,-390.98 558.76,-385.64 565.29,-381.38 572.28,-377.99"/>
<polygon fill="#757575" stroke="#757575" points="573.5,-381.27 581.39,-374.19 570.81,-374.8 573.5,-381.27"/>
</g>
<!-- pages/Reports.jsx -->
<g id="node23" class="node">
<title>pages/Reports.jsx</title>
<path fill="none" stroke="#cfffac" d="M700.08,-334.85C700.08,-334.85 591.92,-334.85 591.92,-334.85 587.96,-334.85 584,-330.9 584,-326.94 584,-326.94 584,-319.02 584,-319.02 584,-315.06 587.96,-311.1 591.92,-311.1 591.92,-311.1 700.08,-311.1 700.08,-311.1 704.04,-311.1 708,-315.06 708,-319.02 708,-319.02 708,-326.94 708,-326.94 708,-330.9 704.04,-334.85 700.08,-334.85"/>
<text xml:space="preserve" text-anchor="middle" x="646" y="-317.55" font-family="Arial" font-size="14.00" fill="#cfffac">pages/Reports.jsx</text>
</g>
<!-- App.jsx&#45;&gt;pages/Reports.jsx -->
<g id="edge22" class="edge">
<title>App.jsx&#45;&gt;pages/Reports.jsx</title>
<path fill="none" stroke="#757575" d="M418.65,-807.91C428.82,-740.58 481.64,-411.82 553.25,-343.98 558.97,-338.56 565.8,-334.43 573.11,-331.31"/>
<polygon fill="#757575" stroke="#757575" points="574.04,-334.69 582.28,-328.04 571.68,-328.1 574.04,-334.69"/>
</g>
<!-- pages/Schedules.jsx -->
<g id="node24" class="node">
<title>pages/Schedules.jsx</title>
<path fill="none" stroke="#c6c5fe" d="M1258.58,-852.85C1258.58,-852.85 1134.67,-852.85 1134.67,-852.85 1130.71,-852.85 1126.75,-848.9 1126.75,-844.94 1126.75,-844.94 1126.75,-837.02 1126.75,-837.02 1126.75,-833.06 1130.71,-829.1 1134.67,-829.1 1134.67,-829.1 1258.58,-829.1 1258.58,-829.1 1262.54,-829.1 1266.5,-833.06 1266.5,-837.02 1266.5,-837.02 1266.5,-844.94 1266.5,-844.94 1266.5,-848.9 1262.54,-852.85 1258.58,-852.85"/>
<text xml:space="preserve" text-anchor="middle" x="1196.62" y="-835.55" font-family="Arial" font-size="14.00" fill="#c6c5fe">pages/Schedules.jsx</text>
</g>
<!-- App.jsx&#45;&gt;pages/Schedules.jsx -->
<g id="edge23" class="edge">
<title>App.jsx&#45;&gt;pages/Schedules.jsx</title>
<path fill="none" stroke="#757575" d="M446.26,-819.69C536.5,-818.94 817.66,-817.74 1050.25,-828.98 1071.37,-830 1094.18,-831.63 1115.32,-833.37"/>
<polygon fill="#757575" stroke="#757575" points="1114.78,-836.83 1125.04,-834.18 1115.37,-829.86 1114.78,-836.83"/>
</g>
<!-- pages/SearchTrips.jsx -->
<g id="node25" class="node">
<title>pages/SearchTrips.jsx</title>
<path fill="none" stroke="#cfffac" d="M712.83,-254.85C712.83,-254.85 579.17,-254.85 579.17,-254.85 575.21,-254.85 571.25,-250.9 571.25,-246.94 571.25,-246.94 571.25,-239.02 571.25,-239.02 571.25,-235.06 575.21,-231.1 579.17,-231.1 579.17,-231.1 712.83,-231.1 712.83,-231.1 716.79,-231.1 720.75,-235.06 720.75,-239.02 720.75,-239.02 720.75,-246.94 720.75,-246.94 720.75,-250.9 716.79,-254.85 712.83,-254.85"/>
<text xml:space="preserve" text-anchor="middle" x="646" y="-237.55" font-family="Arial" font-size="14.00" fill="#cfffac">pages/SearchTrips.jsx</text>
</g>
<!-- App.jsx&#45;&gt;pages/SearchTrips.jsx -->
<g id="edge24" class="edge">
<title>App.jsx&#45;&gt;pages/SearchTrips.jsx</title>
<path fill="none" stroke="#757575" d="M418.2,-808.06C426.55,-735.26 473.96,-350.98 553.25,-268.98 556.18,-265.94 559.45,-263.26 562.94,-260.88"/>
<polygon fill="#757575" stroke="#757575" points="564.44,-264.05 571.35,-256.02 560.94,-257.99 564.44,-264.05"/>
</g>
<!-- pages/UserHome.jsx -->
<g id="node26" class="node">
<title>pages/UserHome.jsx</title>
<path fill="none" stroke="#cfffac" d="M709.08,-1176.85C709.08,-1176.85 582.92,-1176.85 582.92,-1176.85 578.96,-1176.85 575,-1172.9 575,-1168.94 575,-1168.94 575,-1161.02 575,-1161.02 575,-1157.06 578.96,-1153.1 582.92,-1153.1 582.92,-1153.1 709.08,-1153.1 709.08,-1153.1 713.04,-1153.1 717,-1157.06 717,-1161.02 717,-1161.02 717,-1168.94 717,-1168.94 717,-1172.9 713.04,-1176.85 709.08,-1176.85"/>
<text xml:space="preserve" text-anchor="middle" x="646" y="-1159.55" font-family="Arial" font-size="14.00" fill="#cfffac">pages/UserHome.jsx</text>
</g>
<!-- App.jsx&#45;&gt;pages/UserHome.jsx -->
<g id="edge25" class="edge">
<title>App.jsx&#45;&gt;pages/UserHome.jsx</title>
<path fill="none" stroke="#757575" d="M418.11,-832.28C423.62,-880.41 450.45,-1057.62 553.25,-1143.98 556.67,-1146.85 560.41,-1149.35 564.35,-1151.53"/>
<polygon fill="#757575" stroke="#757575" points="562.62,-1154.58 573.16,-1155.64 565.58,-1148.24 562.62,-1154.58"/>
</g>
<!-- context/AuthContext.jsx -->
<g id="node36" class="node">
<title>context/AuthContext.jsx</title>
<path fill="none" stroke="#cfffac" d="M1492.83,-810.85C1492.83,-810.85 1350.92,-810.85 1350.92,-810.85 1346.96,-810.85 1343,-806.9 1343,-802.94 1343,-802.94 1343,-795.02 1343,-795.02 1343,-791.06 1346.96,-787.1 1350.92,-787.1 1350.92,-787.1 1492.83,-787.1 1492.83,-787.1 1496.79,-787.1 1500.75,-791.06 1500.75,-795.02 1500.75,-795.02 1500.75,-802.94 1500.75,-802.94 1500.75,-806.9 1496.79,-810.85 1492.83,-810.85"/>
<text xml:space="preserve" text-anchor="middle" x="1421.88" y="-793.55" font-family="Arial" font-size="14.00" fill="#cfffac">context/AuthContext.jsx</text>
</g>
<!-- components/ProfileEditor.jsx&#45;&gt;context/AuthContext.jsx -->
<g id="edge29" class="edge">
<title>components/ProfileEditor.jsx&#45;&gt;context/AuthContext.jsx</title>
<path fill="none" stroke="#757575" d="M1290.61,-362.73C1296.56,-365.74 1302.12,-369.44 1307,-373.98 1367.52,-430.28 1407.1,-695.14 1417.89,-775.68"/>
<polygon fill="#757575" stroke="#757575" points="1414.4,-776.01 1419.18,-785.47 1421.34,-775.1 1414.4,-776.01"/>
</g>
<!-- layouts/MainLayout.jsx&#45;&gt;context/AuthContext.jsx -->
<g id="edge40" class="edge">
<title>layouts/MainLayout.jsx&#45;&gt;context/AuthContext.jsx</title>
<path fill="none" stroke="#757575" d="M1273.68,-1320.5C1286.1,-1316.39 1297.87,-1310.2 1307,-1300.98 1375.98,-1231.29 1410.37,-912.21 1418.79,-822.5"/>
<polygon fill="#757575" stroke="#757575" points="1422.26,-822.99 1419.69,-812.71 1415.29,-822.35 1422.26,-822.99"/>
</g>
<!-- styles/role&#45;theme.css -->
<g id="node40" class="node">
<title>styles/role&#45;theme.css</title>
<path fill="none" stroke="#cfffac" d="M1485.71,-1359.85C1485.71,-1359.85 1358.04,-1359.85 1358.04,-1359.85 1354.08,-1359.85 1350.12,-1355.9 1350.12,-1351.94 1350.12,-1351.94 1350.12,-1344.02 1350.12,-1344.02 1350.12,-1340.06 1354.08,-1336.1 1358.04,-1336.1 1358.04,-1336.1 1485.71,-1336.1 1485.71,-1336.1 1489.67,-1336.1 1493.62,-1340.06 1493.62,-1344.02 1493.62,-1344.02 1493.62,-1351.94 1493.62,-1351.94 1493.62,-1355.9 1489.67,-1359.85 1485.71,-1359.85"/>
<text xml:space="preserve" text-anchor="middle" x="1421.88" y="-1342.55" font-family="Arial" font-size="14.00" fill="#cfffac">styles/role&#45;theme.css</text>
</g>
<!-- layouts/MainLayout.jsx&#45;&gt;styles/role&#45;theme.css -->
<g id="edge41" class="edge">
<title>layouts/MainLayout.jsx&#45;&gt;styles/role&#45;theme.css</title>
<path fill="none" stroke="#757575" d="M1273.52,-1334.12C1294.41,-1336.08 1317.17,-1338.22 1338.42,-1340.22"/>
<polygon fill="#757575" stroke="#757575" points="1337.92,-1343.69 1348.2,-1341.14 1338.57,-1336.72 1337.92,-1343.69"/>
</g>
<!-- components/PublicHeader.jsx -->
<g id="node38" class="node">
<title>components/PublicHeader.jsx</title>
<path fill="none" stroke="#c6c5fe" d="M1001.83,-700.85C1001.83,-700.85 823.17,-700.85 823.17,-700.85 819.21,-700.85 815.25,-696.9 815.25,-692.94 815.25,-692.94 815.25,-685.02 815.25,-685.02 815.25,-681.06 819.21,-677.1 823.17,-677.1 823.17,-677.1 1001.83,-677.1 1001.83,-677.1 1005.79,-677.1 1009.75,-681.06 1009.75,-685.02 1009.75,-685.02 1009.75,-692.94 1009.75,-692.94 1009.75,-696.9 1005.79,-700.85 1001.83,-700.85"/>
<text xml:space="preserve" text-anchor="middle" x="912.5" y="-683.55" font-family="Arial" font-size="14.00" fill="#c6c5fe">components/PublicHeader.jsx</text>
</g>
<!-- layouts/PublicLayout.jsx&#45;&gt;components/PublicHeader.jsx -->
<g id="edge42" class="edge">
<title>layouts/PublicLayout.jsx&#45;&gt;components/PublicHeader.jsx</title>
<path fill="none" stroke="#757575" d="M726.36,-680.58C750.62,-681.68 777.72,-682.91 803.54,-684.08"/>
<polygon fill="#757575" stroke="#757575" points="803.24,-687.57 813.39,-684.53 803.56,-680.58 803.24,-687.57"/>
</g>
<!-- pages/AcceptInvitation.jsx&#45;&gt;context/AuthContext.jsx -->
<g id="edge45" class="edge">
<title>pages/AcceptInvitation.jsx&#45;&gt;context/AuthContext.jsx</title>
<path fill="none" stroke="#757575" d="M998.71,-119.21C1111.08,-133.07 1296,-157.3 1307,-167.98 1396.33,-254.69 1416.49,-671.57 1420.16,-775.48"/>
<polygon fill="#757575" stroke="#757575" points="1416.65,-775.41 1420.49,-785.29 1423.65,-775.18 1416.65,-775.41"/>
</g>
<!-- hooks/useCompany.js -->
<g id="node51" class="node">
<title>hooks/useCompany.js</title>
<path fill="none" stroke="#c6c5fe" d="M1263.08,-120.85C1263.08,-120.85 1130.17,-120.85 1130.17,-120.85 1126.21,-120.85 1122.25,-116.9 1122.25,-112.94 1122.25,-112.94 1122.25,-105.02 1122.25,-105.02 1122.25,-101.06 1126.21,-97.1 1130.17,-97.1 1130.17,-97.1 1263.08,-97.1 1263.08,-97.1 1267.04,-97.1 1271,-101.06 1271,-105.02 1271,-105.02 1271,-112.94 1271,-112.94 1271,-116.9 1267.04,-120.85 1263.08,-120.85"/>
<text xml:space="preserve" text-anchor="middle" x="1196.62" y="-103.55" font-family="Arial" font-size="14.00" fill="#c6c5fe">hooks/useCompany.js</text>
</g>
<!-- pages/AcceptInvitation.jsx&#45;&gt;hooks/useCompany.js -->
<g id="edge46" class="edge">
<title>pages/AcceptInvitation.jsx&#45;&gt;hooks/useCompany.js</title>
<path fill="none" stroke="#757575" d="M998.91,-108.98C1034.33,-108.98 1075.32,-108.98 1110.68,-108.98"/>
<polygon fill="#757575" stroke="#757575" points="1110.44,-112.48 1120.44,-108.98 1110.44,-105.48 1110.44,-112.48"/>
</g>
<!-- pages/Activities.jsx&#45;&gt;context/AuthContext.jsx -->
<g id="edge48" class="edge">
<title>pages/Activities.jsx&#45;&gt;context/AuthContext.jsx</title>
<path fill="none" stroke="#757575" d="M977.76,-564.13C1001.86,-560.73 1028.61,-554.01 1050.25,-540.98 1072.19,-527.77 1063.17,-507.07 1086.25,-495.98 1174.68,-453.48 1226.34,-440.13 1307,-495.98 1401.69,-561.55 1417.75,-716.35 1420.39,-775.47"/>
<polygon fill="#757575" stroke="#757575" points="1416.89,-775.48 1420.73,-785.35 1423.89,-775.24 1416.89,-775.48"/>
</g>
<!-- components/SearchBar.jsx -->
<g id="node41" class="node">
<title>components/SearchBar.jsx</title>
<path fill="none" stroke="#cfffac" d="M1277.33,-570.85C1277.33,-570.85 1115.92,-570.85 1115.92,-570.85 1111.96,-570.85 1108,-566.9 1108,-562.94 1108,-562.94 1108,-555.02 1108,-555.02 1108,-551.06 1111.96,-547.1 1115.92,-547.1 1115.92,-547.1 1277.33,-547.1 1277.33,-547.1 1281.29,-547.1 1285.25,-551.06 1285.25,-555.02 1285.25,-555.02 1285.25,-562.94 1285.25,-562.94 1285.25,-566.9 1281.29,-570.85 1277.33,-570.85"/>
<text xml:space="preserve" text-anchor="middle" x="1196.62" y="-553.55" font-family="Arial" font-size="14.00" fill="#cfffac">components/SearchBar.jsx</text>
</g>
<!-- pages/Activities.jsx&#45;&gt;components/SearchBar.jsx -->
<g id="edge47" class="edge">
<title>pages/Activities.jsx&#45;&gt;components/SearchBar.jsx</title>
<path fill="none" stroke="#757575" d="M977.87,-565.15C1012.88,-564.16 1056.94,-562.91 1096.25,-561.8"/>
<polygon fill="#757575" stroke="#757575" points="1096.33,-565.3 1106.23,-561.51 1096.13,-558.3 1096.33,-565.3"/>
</g>
<!-- pages/EditActivityModal.jsx -->
<g id="node54" class="node">
<title>pages/EditActivityModal.jsx</title>
<path fill="none" stroke="#c6c5fe" d="M1278.83,-406.85C1278.83,-406.85 1114.42,-406.85 1114.42,-406.85 1110.46,-406.85 1106.5,-402.9 1106.5,-398.94 1106.5,-398.94 1106.5,-391.02 1106.5,-391.02 1106.5,-387.06 1110.46,-383.1 1114.42,-383.1 1114.42,-383.1 1278.83,-383.1 1278.83,-383.1 1282.79,-383.1 1286.75,-387.06 1286.75,-391.02 1286.75,-391.02 1286.75,-398.94 1286.75,-398.94 1286.75,-402.9 1282.79,-406.85 1278.83,-406.85"/>
<text xml:space="preserve" text-anchor="middle" x="1196.62" y="-389.55" font-family="Arial" font-size="14.00" fill="#c6c5fe">pages/EditActivityModal.jsx</text>
</g>
<!-- pages/Activities.jsx&#45;&gt;pages/EditActivityModal.jsx -->
<g id="edge49" class="edge">
<title>pages/Activities.jsx&#45;&gt;pages/EditActivityModal.jsx</title>
<path fill="none" stroke="#757575" d="M977.73,-568.66C1003.1,-566.07 1030.78,-558.72 1050.25,-540.98 1092.98,-502.03 1043.56,-454.96 1086.25,-415.98 1089.27,-413.22 1092.53,-410.78 1095.99,-408.61"/>
<polygon fill="#757575" stroke="#757575" points="1097.62,-411.71 1104.82,-403.93 1094.34,-405.52 1097.62,-411.71"/>
</g>
<!-- pages/ViewActivityModal.jsx -->
<g id="node55" class="node">
<title>pages/ViewActivityModal.jsx</title>
<path fill="none" stroke="#c6c5fe" d="M1281.83,-612.85C1281.83,-612.85 1111.42,-612.85 1111.42,-612.85 1107.46,-612.85 1103.5,-608.9 1103.5,-604.94 1103.5,-604.94 1103.5,-597.02 1103.5,-597.02 1103.5,-593.06 1107.46,-589.1 1111.42,-589.1 1111.42,-589.1 1281.83,-589.1 1281.83,-589.1 1285.79,-589.1 1289.75,-593.06 1289.75,-597.02 1289.75,-597.02 1289.75,-604.94 1289.75,-604.94 1289.75,-608.9 1285.79,-612.85 1281.83,-612.85"/>
<text xml:space="preserve" text-anchor="middle" x="1196.62" y="-595.55" font-family="Arial" font-size="14.00" fill="#c6c5fe">pages/ViewActivityModal.jsx</text>
</g>
<!-- pages/Activities.jsx&#45;&gt;pages/ViewActivityModal.jsx -->
<g id="edge50" class="edge">
<title>pages/Activities.jsx&#45;&gt;pages/ViewActivityModal.jsx</title>
<path fill="none" stroke="#757575" d="M977.87,-574.74C1011.62,-578.8 1053.78,-583.89 1091.99,-588.49"/>
<polygon fill="#757575" stroke="#757575" points="1091.33,-591.94 1101.68,-589.66 1092.17,-584.99 1091.33,-591.94"/>
</g>
<!-- pages/Bookings.jsx&#45;&gt;context/AuthContext.jsx -->
<g id="edge51" class="edge">
<title>pages/Bookings.jsx&#45;&gt;context/AuthContext.jsx</title>
<path fill="none" stroke="#757575" d="M712.44,-1249.46C861.49,-1249.16 1220.01,-1240.24 1307,-1162.98 1410.27,-1071.26 1420.85,-887.34 1421.23,-822.37"/>
<polygon fill="#757575" stroke="#757575" points="1424.73,-822.52 1421.2,-812.54 1417.73,-822.55 1424.73,-822.52"/>
</g>
<!-- components/InviteGuideModal.jsx -->
<g id="node31" class="node">
<title>components/InviteGuideModal.jsx</title>
<path fill="none" stroke="#cfffac" d="M1299.08,-78.85C1299.08,-78.85 1094.17,-78.85 1094.17,-78.85 1090.21,-78.85 1086.25,-74.9 1086.25,-70.94 1086.25,-70.94 1086.25,-63.02 1086.25,-63.02 1086.25,-59.06 1090.21,-55.1 1094.17,-55.1 1094.17,-55.1 1299.08,-55.1 1299.08,-55.1 1303.04,-55.1 1307,-59.06 1307,-63.02 1307,-63.02 1307,-70.94 1307,-70.94 1307,-74.9 1303.04,-78.85 1299.08,-78.85"/>
<text xml:space="preserve" text-anchor="middle" x="1196.62" y="-61.55" font-family="Arial" font-size="14.00" fill="#cfffac">components/InviteGuideModal.jsx</text>
</g>
<!-- pages/CompanyDashboard.jsx&#45;&gt;components/InviteGuideModal.jsx -->
<g id="edge52" class="edge">
<title>pages/CompanyDashboard.jsx&#45;&gt;components/InviteGuideModal.jsx</title>
<path fill="none" stroke="#757575" d="M1013.36,-66.98C1033.16,-66.98 1054.14,-66.98 1074.55,-66.98"/>
<polygon fill="#757575" stroke="#757575" points="1074.31,-70.48 1084.31,-66.98 1074.31,-63.48 1074.31,-70.48"/>
</g>
<!-- pages/CompanyDashboard.jsx&#45;&gt;context/AuthContext.jsx -->
<g id="edge53" class="edge">
<title>pages/CompanyDashboard.jsx&#45;&gt;context/AuthContext.jsx</title>
<path fill="none" stroke="#757575" d="M939.68,-54.71C1009.08,-24.19 1199.77,46.26 1307,-45.98 1420.52,-143.63 1422.31,-657.98 1421.21,-775.19"/>
<polygon fill="#757575" stroke="#757575" points="1417.71,-775.1 1421.1,-785.14 1424.71,-775.18 1417.71,-775.1"/>
</g>
<!-- pages/CompanyDashboard.jsx&#45;&gt;hooks/useCompany.js -->
<g id="edge54" class="edge">
<title>pages/CompanyDashboard.jsx&#45;&gt;hooks/useCompany.js</title>
<path fill="none" stroke="#757575" d="M996.62,-79.35C1032.71,-84.73 1074.92,-91.01 1111.16,-96.41"/>
<polygon fill="#757575" stroke="#757575" points="1110.3,-99.82 1120.7,-97.83 1111.33,-92.89 1110.3,-99.82"/>
</g>
<!-- pages/CreateActivity.jsx&#45;&gt;context/AuthContext.jsx -->
<g id="edge56" class="edge">
<title>pages/CreateActivity.jsx&#45;&gt;context/AuthContext.jsx</title>
<path fill="none" stroke="#757575" d="M709.45,-933.33C730.15,-936.87 753.36,-940.23 774.75,-941.98 892.68,-951.61 1200.51,-978.56 1307,-926.98 1354.65,-903.9 1391.09,-851.03 1408.88,-820.95"/>
<polygon fill="#757575" stroke="#757575" points="1411.69,-823.08 1413.62,-812.67 1405.62,-819.6 1411.69,-823.08"/>
</g>
<!-- components/SearchableSelect.jsx -->
<g id="node42" class="node">
<title>components/SearchableSelect.jsx</title>
<path fill="none" stroke="#cfffac" d="M1014.58,-932.85C1014.58,-932.85 810.42,-932.85 810.42,-932.85 806.46,-932.85 802.5,-928.9 802.5,-924.94 802.5,-924.94 802.5,-917.02 802.5,-917.02 802.5,-913.06 806.46,-909.1 810.42,-909.1 810.42,-909.1 1014.58,-909.1 1014.58,-909.1 1018.54,-909.1 1022.5,-913.06 1022.5,-917.02 1022.5,-917.02 1022.5,-924.94 1022.5,-924.94 1022.5,-928.9 1018.54,-932.85 1014.58,-932.85"/>
<text xml:space="preserve" text-anchor="middle" x="912.5" y="-915.55" font-family="Arial" font-size="14.00" fill="#cfffac">components/SearchableSelect.jsx</text>
</g>
<!-- pages/CreateActivity.jsx&#45;&gt;components/SearchableSelect.jsx -->
<g id="edge55" class="edge">
<title>pages/CreateActivity.jsx&#45;&gt;components/SearchableSelect.jsx</title>
<path fill="none" stroke="#757575" d="M726,-920.98C746.35,-920.98 768.72,-920.98 790.67,-920.98"/>
<polygon fill="#757575" stroke="#757575" points="790.59,-924.48 800.59,-920.98 790.59,-917.48 790.59,-924.48"/>
</g>
<!-- pages/CreateCompany.jsx&#45;&gt;context/AuthContext.jsx -->
<g id="edge57" class="edge">
<title>pages/CreateCompany.jsx&#45;&gt;context/AuthContext.jsx</title>
<path fill="none" stroke="#757575" d="M733.82,-1206.25C892.67,-1203.15 1221.64,-1188.08 1307,-1116.98 1399.54,-1039.89 1416.89,-881.8 1420.13,-822.31"/>
<polygon fill="#757575" stroke="#757575" points="1423.61,-822.84 1420.57,-812.69 1416.62,-822.52 1423.61,-822.84"/>
</g>
<!-- pages/CreateProgram.jsx&#45;&gt;context/AuthContext.jsx -->
<g id="edge59" class="edge">
<title>pages/CreateProgram.jsx&#45;&gt;context/AuthContext.jsx</title>
<path fill="none" stroke="#757575" d="M731.28,-881.93C812.93,-885.13 940.2,-891.01 1050.25,-899.98 1066.3,-901.29 1070.18,-903.09 1086.25,-903.98 1184.21,-909.41 1215.62,-939.68 1307,-903.98 1349.9,-887.22 1386.37,-845.89 1405.81,-820.37"/>
<polygon fill="#757575" stroke="#757575" points="1408.6,-822.47 1411.72,-812.35 1402.97,-818.32 1408.6,-822.47"/>
</g>
<!-- pages/CreateProgram.jsx&#45;&gt;components/SearchableSelect.jsx -->
<g id="edge58" class="edge">
<title>pages/CreateProgram.jsx&#45;&gt;components/SearchableSelect.jsx</title>
<path fill="none" stroke="#757575" d="M724.93,-891.35C755.6,-896.22 790.99,-901.84 822.64,-906.87"/>
<polygon fill="#757575" stroke="#757575" points="821.75,-910.27 832.18,-908.38 822.85,-903.36 821.75,-910.27"/>
</g>
<!-- pages/CreateSchedule.jsx&#45;&gt;context/AuthContext.jsx -->
<g id="edge60" class="edge">
<title>pages/CreateSchedule.jsx&#45;&gt;context/AuthContext.jsx</title>
<path fill="none" stroke="#757575" d="M703.94,-1135.29C827.1,-1158.49 1122.03,-1195.06 1307,-1060.98 1387.49,-1002.64 1411.75,-875.05 1418.48,-822.41"/>
<polygon fill="#757575" stroke="#757575" points="1421.93,-823.11 1419.61,-812.77 1414.97,-822.3 1421.93,-823.11"/>
</g>
<!-- components/LocationsMap.jsx -->
<g id="node34" class="node">
<title>components/LocationsMap.jsx</title>
<path fill="none" stroke="#c6c5fe" d="M1004.08,-162.85C1004.08,-162.85 820.92,-162.85 820.92,-162.85 816.96,-162.85 813,-158.9 813,-154.94 813,-154.94 813,-147.02 813,-147.02 813,-143.06 816.96,-139.1 820.92,-139.1 820.92,-139.1 1004.08,-139.1 1004.08,-139.1 1008.04,-139.1 1012,-143.06 1012,-147.02 1012,-147.02 1012,-154.94 1012,-154.94 1012,-158.9 1008.04,-162.85 1004.08,-162.85"/>
<text xml:space="preserve" text-anchor="middle" x="912.5" y="-145.55" font-family="Arial" font-size="14.00" fill="#c6c5fe">components/LocationsMap.jsx</text>
</g>
<!-- pages/Home.jsx&#45;&gt;components/LocationsMap.jsx -->
<g id="edge63" class="edge">
<title>pages/Home.jsx&#45;&gt;components/LocationsMap.jsx</title>
<path fill="none" stroke="#757575" d="M703.18,-439.7C716.55,-435.83 729.58,-429.44 738.75,-418.98 811.88,-335.55 696.61,-250.72 774.75,-171.98 782.47,-164.2 791.79,-158.52 801.88,-154.45"/>
<polygon fill="#757575" stroke="#757575" points="802.89,-157.81 811.22,-151.26 800.63,-151.18 802.89,-157.81"/>
</g>
<!-- components/home/ActivitiesGrid.jsx -->
<g id="node44" class="node">
<title>components/home/ActivitiesGrid.jsx</title>
<path fill="none" stroke="#c6c5fe" d="M1020.58,-414.85C1020.58,-414.85 804.42,-414.85 804.42,-414.85 800.46,-414.85 796.5,-410.9 796.5,-406.94 796.5,-406.94 796.5,-399.02 796.5,-399.02 796.5,-395.06 800.46,-391.1 804.42,-391.1 804.42,-391.1 1020.58,-391.1 1020.58,-391.1 1024.54,-391.1 1028.5,-395.06 1028.5,-399.02 1028.5,-399.02 1028.5,-406.94 1028.5,-406.94 1028.5,-410.9 1024.54,-414.85 1020.58,-414.85"/>
<text xml:space="preserve" text-anchor="middle" x="912.5" y="-397.55" font-family="Arial" font-size="14.00" fill="#c6c5fe">components/home/ActivitiesGrid.jsx</text>
</g>
<!-- pages/Home.jsx&#45;&gt;components/home/ActivitiesGrid.jsx -->
<g id="edge64" class="edge">
<title>pages/Home.jsx&#45;&gt;components/home/ActivitiesGrid.jsx</title>
<path fill="none" stroke="#757575" d="M702.95,-435.65C725.27,-431.96 751.22,-427.72 774.75,-423.98 789.02,-421.71 804.14,-419.35 818.91,-417.06"/>
<polygon fill="#757575" stroke="#757575" points="819.28,-420.55 828.63,-415.56 818.22,-413.63 819.28,-420.55"/>
</g>
<!-- components/home/CTASection.jsx -->
<g id="node45" class="node">
<title>components/home/CTASection.jsx</title>
<path fill="none" stroke="#cfffac" d="M1016.46,-372.85C1016.46,-372.85 808.54,-372.85 808.54,-372.85 804.58,-372.85 800.62,-368.9 800.62,-364.94 800.62,-364.94 800.62,-357.02 800.62,-357.02 800.62,-353.06 804.58,-349.1 808.54,-349.1 808.54,-349.1 1016.46,-349.1 1016.46,-349.1 1020.42,-349.1 1024.38,-353.06 1024.38,-357.02 1024.38,-357.02 1024.38,-364.94 1024.38,-364.94 1024.38,-368.9 1020.42,-372.85 1016.46,-372.85"/>
<text xml:space="preserve" text-anchor="middle" x="912.5" y="-355.55" font-family="Arial" font-size="14.00" fill="#cfffac">components/home/CTASection.jsx</text>
</g>
<!-- pages/Home.jsx&#45;&gt;components/home/CTASection.jsx -->
<g id="edge65" class="edge">
<title>pages/Home.jsx&#45;&gt;components/home/CTASection.jsx</title>
<path fill="none" stroke="#757575" d="M702.78,-434.2C715.14,-430.46 727.8,-425.51 738.75,-418.98 758.46,-407.23 754.35,-392.49 774.75,-381.98 779.5,-379.53 784.47,-377.35 789.56,-375.4"/>
<polygon fill="#757575" stroke="#757575" points="790.45,-378.8 798.76,-372.24 788.17,-372.18 790.45,-378.8"/>
</g>
<!-- components/home/FeaturedCompanies.jsx -->
<g id="node46" class="node">
<title>components/home/FeaturedCompanies.jsx</title>
<path fill="none" stroke="#cfffac" d="M1042.33,-330.85C1042.33,-330.85 782.67,-330.85 782.67,-330.85 778.71,-330.85 774.75,-326.9 774.75,-322.94 774.75,-322.94 774.75,-315.02 774.75,-315.02 774.75,-311.06 778.71,-307.1 782.67,-307.1 782.67,-307.1 1042.33,-307.1 1042.33,-307.1 1046.29,-307.1 1050.25,-311.06 1050.25,-315.02 1050.25,-315.02 1050.25,-322.94 1050.25,-322.94 1050.25,-326.9 1046.29,-330.85 1042.33,-330.85"/>
<text xml:space="preserve" text-anchor="middle" x="912.5" y="-313.55" font-family="Arial" font-size="14.00" fill="#cfffac">components/home/FeaturedCompanies.jsx</text>
</g>
<!-- pages/Home.jsx&#45;&gt;components/home/FeaturedCompanies.jsx -->
<g id="edge66" class="edge">
<title>pages/Home.jsx&#45;&gt;components/home/FeaturedCompanies.jsx</title>
<path fill="none" stroke="#757575" d="M703.22,-437.25C715.98,-433.39 728.7,-427.61 738.75,-418.98 768.02,-393.84 743.98,-363.26 774.75,-339.98 776.13,-338.94 777.53,-337.94 778.97,-336.98"/>
<polygon fill="#757575" stroke="#757575" points="780.64,-340.05 787.5,-331.98 777.11,-334.01 780.64,-340.05"/>
</g>
<!-- components/home/HeroCarousel.jsx -->
<g id="node48" class="node">
<title>components/home/HeroCarousel.jsx</title>
<path fill="none" stroke="#c6c5fe" d="M1022.46,-204.85C1022.46,-204.85 802.54,-204.85 802.54,-204.85 798.58,-204.85 794.62,-200.9 794.62,-196.94 794.62,-196.94 794.62,-189.02 794.62,-189.02 794.62,-185.06 798.58,-181.1 802.54,-181.1 802.54,-181.1 1022.46,-181.1 1022.46,-181.1 1026.42,-181.1 1030.38,-185.06 1030.38,-189.02 1030.38,-189.02 1030.38,-196.94 1030.38,-196.94 1030.38,-200.9 1026.42,-204.85 1022.46,-204.85"/>
<text xml:space="preserve" text-anchor="middle" x="912.5" y="-187.55" font-family="Arial" font-size="14.00" fill="#c6c5fe">components/home/HeroCarousel.jsx</text>
</g>
<!-- pages/Home.jsx&#45;&gt;components/home/HeroCarousel.jsx -->
<g id="edge67" class="edge">
<title>pages/Home.jsx&#45;&gt;components/home/HeroCarousel.jsx</title>
<path fill="none" stroke="#757575" d="M702.98,-439.52C716.35,-435.65 729.43,-429.3 738.75,-418.98 800.73,-350.31 708.64,-278.68 774.75,-213.98 777.8,-210.99 781.1,-208.31 784.58,-205.92"/>
<polygon fill="#757575" stroke="#757575" points="786.06,-209.11 792.89,-201.01 782.5,-203.08 786.06,-209.11"/>
</g>
<!-- components/home/PlatformFeatures.jsx -->
<g id="node49" class="node">
<title>components/home/PlatformFeatures.jsx</title>
<path fill="none" stroke="#cfffac" d="M1032.96,-498.85C1032.96,-498.85 792.04,-498.85 792.04,-498.85 788.08,-498.85 784.12,-494.9 784.12,-490.94 784.12,-490.94 784.12,-483.02 784.12,-483.02 784.12,-479.06 788.08,-475.1 792.04,-475.1 792.04,-475.1 1032.96,-475.1 1032.96,-475.1 1036.92,-475.1 1040.88,-479.06 1040.88,-483.02 1040.88,-483.02 1040.88,-490.94 1040.88,-490.94 1040.88,-494.9 1036.92,-498.85 1032.96,-498.85"/>
<text xml:space="preserve" text-anchor="middle" x="912.5" y="-481.55" font-family="Arial" font-size="14.00" fill="#cfffac">components/home/PlatformFeatures.jsx</text>
</g>
<!-- pages/Home.jsx&#45;&gt;components/home/PlatformFeatures.jsx -->
<g id="edge68" class="edge">
<title>pages/Home.jsx&#45;&gt;components/home/PlatformFeatures.jsx</title>
<path fill="none" stroke="#757575" d="M702.95,-454.31C725.27,-458 751.22,-462.24 774.75,-465.98 789.02,-468.25 804.14,-470.61 818.91,-472.9"/>
<polygon fill="#757575" stroke="#757575" points="818.22,-476.33 828.63,-474.4 819.28,-469.41 818.22,-476.33"/>
</g>
<!-- components/home/ProgramsGrid.jsx -->
<g id="node50" class="node">
<title>components/home/ProgramsGrid.jsx</title>
<path fill="none" stroke="#c6c5fe" d="M1023.58,-456.85C1023.58,-456.85 801.42,-456.85 801.42,-456.85 797.46,-456.85 793.5,-452.9 793.5,-448.94 793.5,-448.94 793.5,-441.02 793.5,-441.02 793.5,-437.06 797.46,-433.1 801.42,-433.1 801.42,-433.1 1023.58,-433.1 1023.58,-433.1 1027.54,-433.1 1031.5,-437.06 1031.5,-441.02 1031.5,-441.02 1031.5,-448.94 1031.5,-448.94 1031.5,-452.9 1027.54,-456.85 1023.58,-456.85"/>
<text xml:space="preserve" text-anchor="middle" x="912.5" y="-439.55" font-family="Arial" font-size="14.00" fill="#c6c5fe">components/home/ProgramsGrid.jsx</text>
</g>
<!-- pages/Home.jsx&#45;&gt;components/home/ProgramsGrid.jsx -->
<g id="edge69" class="edge">
<title>pages/Home.jsx&#45;&gt;components/home/ProgramsGrid.jsx</title>
<path fill="none" stroke="#757575" d="M703.09,-444.98C726.22,-444.98 754.05,-444.98 781.74,-444.98"/>
<polygon fill="#757575" stroke="#757575" points="781.66,-448.48 791.66,-444.98 781.66,-441.48 781.66,-448.48"/>
</g>
<!-- pages/Login.jsx&#45;&gt;context/AuthContext.jsx -->
<g id="edge70" class="edge">
<title>pages/Login.jsx&#45;&gt;context/AuthContext.jsx</title>
<path fill="none" stroke="#757575" d="M967.67,-1003.27C1061.83,-1006.3 1251,-1007.89 1307,-974.98 1366.15,-940.23 1399.93,-861.23 1413.64,-821.99"/>
<polygon fill="#757575" stroke="#757575" points="1416.92,-823.21 1416.77,-812.61 1410.28,-820.99 1416.92,-823.21"/>
</g>
<!-- pages/ManageUsers.jsx&#45;&gt;context/AuthContext.jsx -->
<g id="edge71" class="edge">
<title>pages/ManageUsers.jsx&#45;&gt;context/AuthContext.jsx</title>
<path fill="none" stroke="#757575" d="M1277.76,-1029.42C1288.26,-1025.67 1298.36,-1020.67 1307,-1013.98 1371.58,-964.01 1403.56,-866.9 1415.35,-822.34"/>
<polygon fill="#757575" stroke="#757575" points="1418.73,-823.27 1417.78,-812.72 1411.94,-821.56 1418.73,-823.27"/>
</g>
<!-- pages/MyCompanies.jsx&#45;&gt;context/AuthContext.jsx -->
<g id="edge72" class="edge">
<title>pages/MyCompanies.jsx&#45;&gt;context/AuthContext.jsx</title>
<path fill="none" stroke="#757575" d="M1277.87,-870.61C1287.81,-868.19 1297.73,-865.34 1307,-861.98 1338.32,-850.64 1371.33,-831.47 1393.7,-817.24"/>
<polygon fill="#757575" stroke="#757575" points="1395.42,-820.3 1401.91,-811.93 1391.62,-814.42 1395.42,-820.3"/>
</g>
<!-- pages/Programs.jsx&#45;&gt;context/AuthContext.jsx -->
<g id="edge74" class="edge">
<title>pages/Programs.jsx&#45;&gt;context/AuthContext.jsx</title>
<path fill="none" stroke="#757575" d="M714.26,-758.79C833.93,-755.76 1091.5,-753.19 1307,-777.98 1321.48,-779.65 1336.9,-782.05 1351.55,-784.65"/>
<polygon fill="#757575" stroke="#757575" points="1350.63,-788.04 1361.1,-786.39 1351.89,-781.15 1350.63,-788.04"/>
</g>
<!-- pages/Programs.jsx&#45;&gt;components/SearchBar.jsx -->
<g id="edge73" class="edge">
<title>pages/Programs.jsx&#45;&gt;components/SearchBar.jsx</title>
<path fill="none" stroke="#757575" d="M714.25,-754.26C723.26,-751 731.78,-746.4 738.75,-739.98 777.81,-703.96 734.15,-660.25 774.75,-625.98 821.98,-586.12 989.42,-598.91 1050.25,-587.98 1066.38,-585.08 1070.2,-583.3 1086.25,-579.98 1096.65,-577.83 1107.62,-575.63 1118.44,-573.51"/>
<polygon fill="#757575" stroke="#757575" points="1119,-576.97 1128.14,-571.62 1117.66,-570.1 1119,-576.97"/>
</g>
<!-- pages/EditProgramModal.jsx -->
<g id="node57" class="node">
<title>pages/EditProgramModal.jsx</title>
<path fill="none" stroke="#c6c5fe" d="M1283.71,-810.85C1283.71,-810.85 1109.54,-810.85 1109.54,-810.85 1105.58,-810.85 1101.62,-806.9 1101.62,-802.94 1101.62,-802.94 1101.62,-795.02 1101.62,-795.02 1101.62,-791.06 1105.58,-787.1 1109.54,-787.1 1109.54,-787.1 1283.71,-787.1 1283.71,-787.1 1287.67,-787.1 1291.62,-791.06 1291.62,-795.02 1291.62,-795.02 1291.62,-802.94 1291.62,-802.94 1291.62,-806.9 1287.67,-810.85 1283.71,-810.85"/>
<text xml:space="preserve" text-anchor="middle" x="1196.62" y="-793.55" font-family="Arial" font-size="14.00" fill="#c6c5fe">pages/EditProgramModal.jsx</text>
</g>
<!-- pages/Programs.jsx&#45;&gt;pages/EditProgramModal.jsx -->
<g id="edge75" class="edge">
<title>pages/Programs.jsx&#45;&gt;pages/EditProgramModal.jsx</title>
<path fill="none" stroke="#757575" d="M714.27,-765.64C808.19,-772.14 979.51,-784.01 1090.4,-791.69"/>
<polygon fill="#757575" stroke="#757575" points="1089.88,-795.16 1100.1,-792.36 1090.36,-788.18 1089.88,-795.16"/>
</g>
<!-- pages/ViewProgramModal.jsx -->
<g id="node59" class="node">
<title>pages/ViewProgramModal.jsx</title>
<path fill="none" stroke="#c6c5fe" d="M1002.58,-658.85C1002.58,-658.85 822.42,-658.85 822.42,-658.85 818.46,-658.85 814.5,-654.9 814.5,-650.94 814.5,-650.94 814.5,-643.02 814.5,-643.02 814.5,-639.06 818.46,-635.1 822.42,-635.1 822.42,-635.1 1002.58,-635.1 1002.58,-635.1 1006.54,-635.1 1010.5,-639.06 1010.5,-643.02 1010.5,-643.02 1010.5,-650.94 1010.5,-650.94 1010.5,-654.9 1006.54,-658.85 1002.58,-658.85"/>
<text xml:space="preserve" text-anchor="middle" x="912.5" y="-641.55" font-family="Arial" font-size="14.00" fill="#c6c5fe">pages/ViewProgramModal.jsx</text>
</g>
<!-- pages/Programs.jsx&#45;&gt;pages/ViewProgramModal.jsx -->
<g id="edge76" class="edge">
<title>pages/Programs.jsx&#45;&gt;pages/ViewProgramModal.jsx</title>
<path fill="none" stroke="#757575" d="M714.33,-752.91C723.12,-749.82 731.56,-745.63 738.75,-739.98 766.88,-717.87 745.84,-689.05 774.75,-667.98 783.39,-661.68 793.17,-656.94 803.42,-653.4"/>
<polygon fill="#757575" stroke="#757575" points="804.23,-656.81 812.8,-650.57 802.21,-650.11 804.23,-656.81"/>
</g>
<!-- pages/Schedules.jsx&#45;&gt;context/AuthContext.jsx -->
<g id="edge77" class="edge">
<title>pages/Schedules.jsx&#45;&gt;context/AuthContext.jsx</title>
<path fill="none" stroke="#757575" d="M1263.4,-828.61C1288.72,-823.84 1317.85,-818.36 1344.12,-813.42"/>
<polygon fill="#757575" stroke="#757575" points="1344.52,-816.91 1353.7,-811.62 1343.22,-810.03 1344.52,-816.91"/>
</g>
<!-- assets/logo.png -->
<g id="node27" class="node">
<title>assets/logo.png</title>
<path fill="none" stroke="#cfffac" d="M1243.96,-730.85C1243.96,-730.85 1149.29,-730.85 1149.29,-730.85 1145.33,-730.85 1141.38,-726.9 1141.38,-722.94 1141.38,-722.94 1141.38,-715.02 1141.38,-715.02 1141.38,-711.06 1145.33,-707.1 1149.29,-707.1 1149.29,-707.1 1243.96,-707.1 1243.96,-707.1 1247.92,-707.1 1251.88,-711.06 1251.88,-715.02 1251.88,-715.02 1251.88,-722.94 1251.88,-722.94 1251.88,-726.9 1247.92,-730.85 1243.96,-730.85"/>
<text xml:space="preserve" text-anchor="middle" x="1196.62" y="-713.55" font-family="Arial" font-size="14.00" fill="#cfffac">assets/logo.png</text>
</g>
<!-- components/AutoFitBounds.jsx -->
<g id="node28" class="node">
<title>components/AutoFitBounds.jsx</title>
<path fill="none" stroke="#cfffac" d="M509.33,-1341.85C509.33,-1341.85 322.42,-1341.85 322.42,-1341.85 318.46,-1341.85 314.5,-1337.9 314.5,-1333.94 314.5,-1333.94 314.5,-1326.02 314.5,-1326.02 314.5,-1322.06 318.46,-1318.1 322.42,-1318.1 322.42,-1318.1 509.33,-1318.1 509.33,-1318.1 513.29,-1318.1 517.25,-1322.06 517.25,-1326.02 517.25,-1326.02 517.25,-1333.94 517.25,-1333.94 517.25,-1337.9 513.29,-1341.85 509.33,-1341.85"/>
<text xml:space="preserve" text-anchor="middle" x="415.88" y="-1324.55" font-family="Arial" font-size="14.00" fill="#cfffac">components/AutoFitBounds.jsx</text>
</g>
<!-- components/AutoZoom.jsx -->
<g id="node29" class="node">
<title>components/AutoZoom.jsx</title>
<path fill="none" stroke="#cfffac" d="M1277.33,-200.85C1277.33,-200.85 1115.92,-200.85 1115.92,-200.85 1111.96,-200.85 1108,-196.9 1108,-192.94 1108,-192.94 1108,-185.02 1108,-185.02 1108,-181.06 1111.96,-177.1 1115.92,-177.1 1115.92,-177.1 1277.33,-177.1 1277.33,-177.1 1281.29,-177.1 1285.25,-181.06 1285.25,-185.02 1285.25,-185.02 1285.25,-192.94 1285.25,-192.94 1285.25,-196.9 1281.29,-200.85 1277.33,-200.85"/>
<text xml:space="preserve" text-anchor="middle" x="1196.62" y="-183.55" font-family="Arial" font-size="14.00" fill="#cfffac">components/AutoZoom.jsx</text>
</g>
<!-- components/CheckoutForm.jsx -->
<g id="node30" class="node">
<title>components/CheckoutForm.jsx</title>
<path fill="none" stroke="#cfffac" d="M233.08,-1383.85C233.08,-1383.85 45.42,-1383.85 45.42,-1383.85 41.46,-1383.85 37.5,-1379.9 37.5,-1375.94 37.5,-1375.94 37.5,-1368.02 37.5,-1368.02 37.5,-1364.06 41.46,-1360.1 45.42,-1360.1 45.42,-1360.1 233.08,-1360.1 233.08,-1360.1 237.04,-1360.1 241,-1364.06 241,-1368.02 241,-1368.02 241,-1375.94 241,-1375.94 241,-1379.9 237.04,-1383.85 233.08,-1383.85"/>
<text xml:space="preserve" text-anchor="middle" x="139.25" y="-1366.55" font-family="Arial" font-size="14.00" fill="#cfffac">components/CheckoutForm.jsx</text>
</g>
<!-- components/LocationsList.jsx -->
<g id="node32" class="node">
<title>components/LocationsList.jsx</title>
<path fill="none" stroke="#c6c5fe" d="M1001.08,-288.85C1001.08,-288.85 823.92,-288.85 823.92,-288.85 819.96,-288.85 816,-284.9 816,-280.94 816,-280.94 816,-273.02 816,-273.02 816,-269.06 819.96,-265.1 823.92,-265.1 823.92,-265.1 1001.08,-265.1 1001.08,-265.1 1005.04,-265.1 1009,-269.06 1009,-273.02 1009,-273.02 1009,-280.94 1009,-280.94 1009,-284.9 1005.04,-288.85 1001.08,-288.85"/>
<text xml:space="preserve" text-anchor="middle" x="912.5" y="-271.55" font-family="Arial" font-size="14.00" fill="#c6c5fe">components/LocationsList.jsx</text>
</g>
<!-- components/home/useApiList.js -->
<g id="node33" class="node">
<title>components/home/useApiList.js</title>
<path fill="none" stroke="#cfffac" d="M1292.71,-288.85C1292.71,-288.85 1100.54,-288.85 1100.54,-288.85 1096.58,-288.85 1092.62,-284.9 1092.62,-280.94 1092.62,-280.94 1092.62,-273.02 1092.62,-273.02 1092.62,-269.06 1096.58,-265.1 1100.54,-265.1 1100.54,-265.1 1292.71,-265.1 1292.71,-265.1 1296.67,-265.1 1300.62,-269.06 1300.62,-273.02 1300.62,-273.02 1300.62,-280.94 1300.62,-280.94 1300.62,-284.9 1296.67,-288.85 1292.71,-288.85"/>
<text xml:space="preserve" text-anchor="middle" x="1196.62" y="-271.55" font-family="Arial" font-size="14.00" fill="#cfffac">components/home/useApiList.js</text>
</g>
<!-- components/LocationsList.jsx&#45;&gt;components/home/useApiList.js -->
<g id="edge26" class="edge">
<title>components/LocationsList.jsx&#45;&gt;components/home/useApiList.js</title>
<path fill="none" stroke="#757575" d="M1009.41,-276.98C1032.44,-276.98 1057.26,-276.98 1081.05,-276.98"/>
<polygon fill="#757575" stroke="#757575" points="1080.74,-280.48 1090.74,-276.98 1080.74,-273.48 1080.74,-280.48"/>
</g>
<!-- components/LocationsMap.jsx&#45;&gt;components/AutoZoom.jsx -->
<g id="edge27" class="edge">
<title>components/LocationsMap.jsx&#45;&gt;components/AutoZoom.jsx</title>
<path fill="none" stroke="#757575" d="M1005.1,-163.32C1034.35,-167.26 1066.84,-171.63 1096.59,-175.64"/>
<polygon fill="#757575" stroke="#757575" points="1095.97,-179.09 1106.35,-176.95 1096.9,-172.15 1095.97,-179.09"/>
</g>
<!-- components/MapView.jsx -->
<g id="node35" class="node">
<title>components/MapView.jsx</title>
<path fill="none" stroke="#c6c5fe" d="M216.21,-1341.85C216.21,-1341.85 62.29,-1341.85 62.29,-1341.85 58.33,-1341.85 54.38,-1337.9 54.38,-1333.94 54.38,-1333.94 54.38,-1326.02 54.38,-1326.02 54.38,-1322.06 58.33,-1318.1 62.29,-1318.1 62.29,-1318.1 216.21,-1318.1 216.21,-1318.1 220.17,-1318.1 224.12,-1322.06 224.12,-1326.02 224.12,-1326.02 224.12,-1333.94 224.12,-1333.94 224.12,-1337.9 220.17,-1341.85 216.21,-1341.85"/>
<text xml:space="preserve" text-anchor="middle" x="139.25" y="-1324.55" font-family="Arial" font-size="14.00" fill="#c6c5fe">components/MapView.jsx</text>
</g>
<!-- components/MapView.jsx&#45;&gt;components/AutoFitBounds.jsx -->
<g id="edge28" class="edge">
<title>components/MapView.jsx&#45;&gt;components/AutoFitBounds.jsx</title>
<path fill="none" stroke="#757575" d="M224.51,-1329.98C249.35,-1329.98 276.91,-1329.98 303.19,-1329.98"/>
<polygon fill="#757575" stroke="#757575" points="302.84,-1333.48 312.84,-1329.98 302.84,-1326.48 302.84,-1333.48"/>
</g>
<!-- components/ProtectedRoute.jsx -->
<g id="node37" class="node">
<title>components/ProtectedRoute.jsx</title>
<path fill="none" stroke="#c6c5fe" d="M1292.71,-528.85C1292.71,-528.85 1100.54,-528.85 1100.54,-528.85 1096.58,-528.85 1092.62,-524.9 1092.62,-520.94 1092.62,-520.94 1092.62,-513.02 1092.62,-513.02 1092.62,-509.06 1096.58,-505.1 1100.54,-505.1 1100.54,-505.1 1292.71,-505.1 1292.71,-505.1 1296.67,-505.1 1300.62,-509.06 1300.62,-513.02 1300.62,-513.02 1300.62,-520.94 1300.62,-520.94 1300.62,-524.9 1296.67,-528.85 1292.71,-528.85"/>
<text xml:space="preserve" text-anchor="middle" x="1196.62" y="-511.55" font-family="Arial" font-size="14.00" fill="#c6c5fe">components/ProtectedRoute.jsx</text>
</g>
<!-- components/ProtectedRoute.jsx&#45;&gt;context/AuthContext.jsx -->
<g id="edge30" class="edge">
<title>components/ProtectedRoute.jsx&#45;&gt;context/AuthContext.jsx</title>
<path fill="none" stroke="#757575" d="M1293.3,-529.23C1298.16,-531.71 1302.77,-534.6 1307,-537.98 1384.05,-599.59 1410.17,-723.73 1417.94,-775.49"/>
<polygon fill="#757575" stroke="#757575" points="1414.46,-775.82 1419.3,-785.24 1421.39,-774.85 1414.46,-775.82"/>
</g>
<!-- components/PublicHeader.jsx&#45;&gt;assets/logo.png -->
<g id="edge31" class="edge">
<title>components/PublicHeader.jsx&#45;&gt;assets/logo.png</title>
<path fill="none" stroke="#757575" d="M1010.2,-699.26C1049.63,-703.46 1094.22,-708.2 1129.79,-711.98"/>
<polygon fill="#757575" stroke="#757575" points="1129.19,-715.43 1139.5,-713.01 1129.93,-708.47 1129.19,-715.43"/>
</g>
<!-- components/PublicHeader.jsx&#45;&gt;context/AuthContext.jsx -->
<g id="edge32" class="edge">
<title>components/PublicHeader.jsx&#45;&gt;context/AuthContext.jsx</title>
<path fill="none" stroke="#757575" d="M982.78,-676.61C1063.66,-665.28 1199.98,-655.95 1307,-697.98 1348.69,-714.35 1385.1,-753.32 1404.94,-777.79"/>
<polygon fill="#757575" stroke="#757575" points="1402.06,-779.8 1411,-785.49 1407.56,-775.46 1402.06,-779.8"/>
</g>
<!-- components/RoleCards.jsx -->
<g id="node39" class="node">
<title>components/RoleCards.jsx</title>
<path fill="none" stroke="#c6c5fe" d="M1277.71,-1380.85C1277.71,-1380.85 1115.54,-1380.85 1115.54,-1380.85 1111.58,-1380.85 1107.62,-1376.9 1107.62,-1372.94 1107.62,-1372.94 1107.62,-1365.02 1107.62,-1365.02 1107.62,-1361.06 1111.58,-1357.1 1115.54,-1357.1 1115.54,-1357.1 1277.71,-1357.1 1277.71,-1357.1 1281.67,-1357.1 1285.62,-1361.06 1285.62,-1365.02 1285.62,-1365.02 1285.62,-1372.94 1285.62,-1372.94 1285.62,-1376.9 1281.67,-1380.85 1277.71,-1380.85"/>
<text xml:space="preserve" text-anchor="middle" x="1196.62" y="-1363.55" font-family="Arial" font-size="14.00" fill="#c6c5fe">components/RoleCards.jsx</text>
</g>
<!-- components/RoleCards.jsx&#45;&gt;context/AuthContext.jsx -->
<g id="edge33" class="edge">
<title>components/RoleCards.jsx&#45;&gt;context/AuthContext.jsx</title>
<path fill="none" stroke="#757575" d="M1285.95,-1361.91C1293.73,-1358.49 1300.94,-1353.95 1307,-1347.98 1383.73,-1272.38 1412.9,-917.14 1419.4,-822.3"/>
<polygon fill="#757575" stroke="#757575" points="1422.88,-822.65 1420.05,-812.44 1415.9,-822.19 1422.88,-822.65"/>
</g>
<!-- components/RoleCards.jsx&#45;&gt;styles/role&#45;theme.css -->
<g id="edge34" class="edge">
<title>components/RoleCards.jsx&#45;&gt;styles/role&#45;theme.css</title>
<path fill="none" stroke="#757575" d="M1285.86,-1360.68C1303.26,-1359.04 1321.45,-1357.33 1338.63,-1355.72"/>
<polygon fill="#757575" stroke="#757575" points="1338.63,-1359.23 1348.26,-1354.81 1337.98,-1352.26 1338.63,-1359.23"/>
</g>
<!-- components/common/OneRowCarousel.jsx -->
<g id="node43" class="node">
<title>components/common/OneRowCarousel.jsx</title>
<path fill="none" stroke="#cfffac" d="M270.58,-1425.85C270.58,-1425.85 7.92,-1425.85 7.92,-1425.85 3.96,-1425.85 0,-1421.9 0,-1417.94 0,-1417.94 0,-1410.02 0,-1410.02 0,-1406.06 3.96,-1402.1 7.92,-1402.1 7.92,-1402.1 270.58,-1402.1 270.58,-1402.1 274.54,-1402.1 278.5,-1406.06 278.5,-1410.02 278.5,-1410.02 278.5,-1417.94 278.5,-1417.94 278.5,-1421.9 274.54,-1425.85 270.58,-1425.85"/>
<text xml:space="preserve" text-anchor="middle" x="139.25" y="-1408.55" font-family="Arial" font-size="14.00" fill="#cfffac">components/common/OneRowCarousel.jsx</text>
</g>
<!-- components/home/ActivitiesGrid.jsx&#45;&gt;components/home/useApiList.js -->
<g id="edge35" class="edge">
<title>components/home/ActivitiesGrid.jsx&#45;&gt;components/home/useApiList.js</title>
<path fill="none" stroke="#757575" d="M1028.98,-392.23C1036.42,-389.44 1043.59,-386.06 1050.25,-381.98 1073.6,-367.68 1065.42,-349.75 1086.25,-331.98 1105.11,-315.89 1129.5,-303.04 1150.46,-293.82"/>
<polygon fill="#757575" stroke="#757575" points="1151.82,-297.04 1159.66,-289.92 1149.09,-290.6 1151.82,-297.04"/>
</g>
<!-- components/home/GuidesList.jsx -->
<g id="node47" class="node">
<title>components/home/GuidesList.jsx</title>
<path fill="none" stroke="#c6c5fe" d="M1013.08,-246.85C1013.08,-246.85 811.92,-246.85 811.92,-246.85 807.96,-246.85 804,-242.9 804,-238.94 804,-238.94 804,-231.02 804,-231.02 804,-227.06 807.96,-223.1 811.92,-223.1 811.92,-223.1 1013.08,-223.1 1013.08,-223.1 1017.04,-223.1 1021,-227.06 1021,-231.02 1021,-231.02 1021,-238.94 1021,-238.94 1021,-242.9 1017.04,-246.85 1013.08,-246.85"/>
<text xml:space="preserve" text-anchor="middle" x="912.5" y="-229.55" font-family="Arial" font-size="14.00" fill="#c6c5fe">components/home/GuidesList.jsx</text>
</g>
<!-- components/home/GuidesList.jsx&#45;&gt;components/home/useApiList.js -->
<g id="edge36" class="edge">
<title>components/home/GuidesList.jsx&#45;&gt;components/home/useApiList.js</title>
<path fill="none" stroke="#757575" d="M996.62,-247.35C1029.48,-252.25 1067.41,-257.89 1101.29,-262.94"/>
<polygon fill="#757575" stroke="#757575" points="1100.71,-266.39 1111.11,-264.4 1101.74,-259.46 1100.71,-266.39"/>
</g>
<!-- components/home/HeroCarousel.jsx&#45;&gt;components/home/useApiList.js -->
<g id="edge37" class="edge">
<title>components/home/HeroCarousel.jsx&#45;&gt;components/home/useApiList.js</title>
<path fill="none" stroke="#757575" d="M1013.49,-205.28C1025.97,-207.71 1038.48,-210.59 1050.25,-213.98 1090.27,-225.52 1133.8,-245.44 1162.69,-259.8"/>
<polygon fill="#757575" stroke="#757575" points="1160.78,-262.76 1171.29,-264.13 1163.93,-256.51 1160.78,-262.76"/>
</g>
<!-- components/home/ProgramsGrid.jsx&#45;&gt;components/home/useApiList.js -->
<g id="edge38" class="edge">
<title>components/home/ProgramsGrid.jsx&#45;&gt;components/home/useApiList.js</title>
<path fill="none" stroke="#757575" d="M1031.9,-435.31C1038.44,-432.22 1044.62,-428.48 1050.25,-423.98 1084.53,-396.54 1056.68,-364.44 1086.25,-331.98 1101.91,-314.79 1124.17,-302.24 1144.52,-293.52"/>
<polygon fill="#757575" stroke="#757575" points="1145.59,-296.86 1153.54,-289.86 1142.96,-290.37 1145.59,-296.86"/>
</g>
<!-- hooks/useCompany.js&#45;&gt;context/AuthContext.jsx -->
<g id="edge39" class="edge">
<title>hooks/useCompany.js&#45;&gt;context/AuthContext.jsx</title>
<path fill="none" stroke="#757575" d="M1271.29,-114.17C1284.7,-118.28 1297.45,-124.8 1307,-134.98 1396.79,-230.66 1416.66,-668.71 1420.2,-775.47"/>
<polygon fill="#757575" stroke="#757575" points="1416.7,-775.4 1420.51,-785.29 1423.69,-775.18 1416.7,-775.4"/>
</g>
<!-- lib/api.js -->
<g id="node52" class="node">
<title>lib/api.js</title>
<path fill="none" stroke="#cfffac" d="M163.71,-1467.85C163.71,-1467.85 114.79,-1467.85 114.79,-1467.85 110.83,-1467.85 106.88,-1463.9 106.88,-1459.94 106.88,-1459.94 106.88,-1452.02 106.88,-1452.02 106.88,-1448.06 110.83,-1444.1 114.79,-1444.1 114.79,-1444.1 163.71,-1444.1 163.71,-1444.1 167.67,-1444.1 171.62,-1448.06 171.62,-1452.02 171.62,-1452.02 171.62,-1459.94 171.62,-1459.94 171.62,-1463.9 167.67,-1467.85 163.71,-1467.85"/>
<text xml:space="preserve" text-anchor="middle" x="139.25" y="-1450.55" font-family="Arial" font-size="14.00" fill="#cfffac">lib/api.js</text>
</g>
<!-- main.jsx -->
<g id="node53" class="node">
<title>main.jsx</title>
<path fill="none" stroke="#c6c5fe" d="M164.46,-1065.85C164.46,-1065.85 114.04,-1065.85 114.04,-1065.85 110.08,-1065.85 106.12,-1061.9 106.12,-1057.94 106.12,-1057.94 106.12,-1050.02 106.12,-1050.02 106.12,-1046.06 110.08,-1042.1 114.04,-1042.1 114.04,-1042.1 164.46,-1042.1 164.46,-1042.1 168.42,-1042.1 172.38,-1046.06 172.38,-1050.02 172.38,-1050.02 172.38,-1057.94 172.38,-1057.94 172.38,-1061.9 168.42,-1065.85 164.46,-1065.85"/>
<text xml:space="preserve" text-anchor="middle" x="139.25" y="-1048.55" font-family="Arial" font-size="14.00" fill="#c6c5fe">main.jsx</text>
</g>
<!-- main.jsx&#45;&gt;App.jsx -->
<g id="edge43" class="edge">
<title>main.jsx&#45;&gt;App.jsx</title>
<path fill="none" stroke="#757575" d="M154.63,-1041.73C199.49,-1003.5 337.15,-886.2 391.99,-839.48"/>
<polygon fill="#757575" stroke="#757575" points="394.15,-842.24 399.49,-833.09 389.61,-836.91 394.15,-842.24"/>
</g>
<!-- main.jsx&#45;&gt;context/AuthContext.jsx -->
<g id="edge44" class="edge">
<title>main.jsx&#45;&gt;context/AuthContext.jsx</title>
<path fill="none" stroke="#757575" d="M156.37,-1066.18C209.47,-1105.48 385.09,-1228.66 553.25,-1269.98 716.43,-1310.07 1182.79,-1323.14 1307,-1209.98 1366.1,-1156.14 1406.52,-900.68 1417.72,-822.06"/>
<polygon fill="#757575" stroke="#757575" points="1421.14,-822.91 1419.06,-812.52 1414.21,-821.94 1421.14,-822.91"/>
</g>
<!-- pages/EditActivityModal.jsx&#45;&gt;context/AuthContext.jsx -->
<g id="edge61" class="edge">
<title>pages/EditActivityModal.jsx&#45;&gt;context/AuthContext.jsx</title>
<path fill="none" stroke="#757575" d="M1287.05,-403.28C1294.32,-406.5 1301.12,-410.66 1307,-415.98 1414.74,-513.52 1422.4,-707.91 1421.63,-775.31"/>
<polygon fill="#757575" stroke="#757575" points="1418.14,-775.12 1421.43,-785.19 1425.13,-775.26 1418.14,-775.12"/>
</g>
<!-- pages/ViewActivityModal.jsx&#45;&gt;context/AuthContext.jsx -->
<g id="edge79" class="edge">
<title>pages/ViewActivityModal.jsx&#45;&gt;context/AuthContext.jsx</title>
<path fill="none" stroke="#757575" d="M1280.01,-613.33C1289.59,-616.82 1298.84,-621.28 1307,-626.98 1361.81,-665.26 1397.24,-739.18 1412.41,-776.4"/>
<polygon fill="#757575" stroke="#757575" points="1408.98,-777.26 1415.91,-785.28 1415.5,-774.7 1408.98,-777.26"/>
</g>
<!-- pages/Dashboard.jsx -->
<g id="node56" class="node">
<title>pages/Dashboard.jsx</title>
<path fill="none" stroke="#cfffac" d="M202.71,-1509.85C202.71,-1509.85 75.79,-1509.85 75.79,-1509.85 71.83,-1509.85 67.88,-1505.9 67.88,-1501.94 67.88,-1501.94 67.88,-1494.02 67.88,-1494.02 67.88,-1490.06 71.83,-1486.1 75.79,-1486.1 75.79,-1486.1 202.71,-1486.1 202.71,-1486.1 206.67,-1486.1 210.62,-1490.06 210.62,-1494.02 210.62,-1494.02 210.62,-1501.94 210.62,-1501.94 210.62,-1505.9 206.67,-1509.85 202.71,-1509.85"/>
<text xml:space="preserve" text-anchor="middle" x="139.25" y="-1492.55" font-family="Arial" font-size="14.00" fill="#cfffac">pages/Dashboard.jsx</text>
</g>
<!-- pages/EditProgramModal.jsx&#45;&gt;context/AuthContext.jsx -->
<g id="edge62" class="edge">
<title>pages/EditProgramModal.jsx&#45;&gt;context/AuthContext.jsx</title>
<path fill="none" stroke="#757575" d="M1291.98,-798.98C1305.05,-798.98 1318.44,-798.98 1331.42,-798.98"/>
<polygon fill="#757575" stroke="#757575" points="1331.19,-802.48 1341.19,-798.98 1331.19,-795.48 1331.19,-802.48"/>
</g>
<!-- pages/PayModal.jsx -->
<g id="node58" class="node">
<title>pages/PayModal.jsx</title>
<path fill="none" stroke="#cfffac" d="M200.08,-1551.85C200.08,-1551.85 78.42,-1551.85 78.42,-1551.85 74.46,-1551.85 70.5,-1547.9 70.5,-1543.94 70.5,-1543.94 70.5,-1536.02 70.5,-1536.02 70.5,-1532.06 74.46,-1528.1 78.42,-1528.1 78.42,-1528.1 200.08,-1528.1 200.08,-1528.1 204.04,-1528.1 208,-1532.06 208,-1536.02 208,-1536.02 208,-1543.94 208,-1543.94 208,-1547.9 204.04,-1551.85 200.08,-1551.85"/>
<text xml:space="preserve" text-anchor="middle" x="139.25" y="-1534.55" font-family="Arial" font-size="14.00" fill="#cfffac">pages/PayModal.jsx</text>
</g>
<!-- pages/ViewProgramModal.jsx&#45;&gt;context/AuthContext.jsx -->
<g id="edge80" class="edge">
<title>pages/ViewProgramModal.jsx&#45;&gt;context/AuthContext.jsx</title>
<path fill="none" stroke="#757575" d="M976.25,-634.63C1057.24,-621.91 1200.4,-610.54 1307,-662.98 1356.68,-687.42 1392.75,-744.62 1409.82,-776.5"/>
<polygon fill="#757575" stroke="#757575" points="1406.66,-778.01 1414.36,-785.28 1412.88,-774.79 1406.66,-778.01"/>
</g>
<!-- pages/ViewProgramModal.jsx&#45;&gt;pages/ViewActivityModal.jsx -->
<g id="edge81" class="edge">
<title>pages/ViewProgramModal.jsx&#45;&gt;pages/ViewActivityModal.jsx</title>
<path fill="none" stroke="#757575" d="M989.1,-634.65C1025.95,-628.65 1070.44,-621.39 1108.68,-615.16"/>
<polygon fill="#757575" stroke="#757575" points="1109.01,-618.65 1118.32,-613.58 1107.89,-611.74 1109.01,-618.65"/>
</g>
<!-- pages/SearchActivities.jsx -->
<g id="node60" class="node">
<title>pages/SearchActivities.jsx</title>
<path fill="none" stroke="#cfffac" d="M217.71,-1593.85C217.71,-1593.85 60.79,-1593.85 60.79,-1593.85 56.83,-1593.85 52.88,-1589.9 52.88,-1585.94 52.88,-1585.94 52.88,-1578.02 52.88,-1578.02 52.88,-1574.06 56.83,-1570.1 60.79,-1570.1 60.79,-1570.1 217.71,-1570.1 217.71,-1570.1 221.67,-1570.1 225.62,-1574.06 225.62,-1578.02 225.62,-1578.02 225.62,-1585.94 225.62,-1585.94 225.62,-1589.9 221.67,-1593.85 217.71,-1593.85"/>
<text xml:space="preserve" text-anchor="middle" x="139.25" y="-1576.55" font-family="Arial" font-size="14.00" fill="#cfffac">pages/SearchActivities.jsx</text>
</g>
<!-- pages/SearchPrograms.jsx -->
<g id="node61" class="node">
<title>pages/SearchPrograms.jsx</title>
<path fill="none" stroke="#cfffac" d="M220.71,-1635.85C220.71,-1635.85 57.79,-1635.85 57.79,-1635.85 53.83,-1635.85 49.88,-1631.9 49.88,-1627.94 49.88,-1627.94 49.88,-1620.02 49.88,-1620.02 49.88,-1616.06 53.83,-1612.1 57.79,-1612.1 57.79,-1612.1 220.71,-1612.1 220.71,-1612.1 224.67,-1612.1 228.62,-1616.06 228.62,-1620.02 228.62,-1620.02 228.62,-1627.94 228.62,-1627.94 228.62,-1631.9 224.67,-1635.85 220.71,-1635.85"/>
<text xml:space="preserve" text-anchor="middle" x="139.25" y="-1618.55" font-family="Arial" font-size="14.00" fill="#cfffac">pages/SearchPrograms.jsx</text>
</g>
<!-- pages/Settings.jsx -->
<g id="node62" class="node">
<title>pages/Settings.jsx</title>
<path fill="none" stroke="#cfffac" d="M194.08,-1677.85C194.08,-1677.85 84.42,-1677.85 84.42,-1677.85 80.46,-1677.85 76.5,-1673.9 76.5,-1669.94 76.5,-1669.94 76.5,-1662.02 76.5,-1662.02 76.5,-1658.06 80.46,-1654.1 84.42,-1654.1 84.42,-1654.1 194.08,-1654.1 194.08,-1654.1 198.04,-1654.1 202,-1658.06 202,-1662.02 202,-1662.02 202,-1669.94 202,-1669.94 202,-1673.9 198.04,-1677.85 194.08,-1677.85"/>
<text xml:space="preserve" text-anchor="middle" x="139.25" y="-1660.55" font-family="Arial" font-size="14.00" fill="#cfffac">pages/Settings.jsx</text>
</g>
<!-- pages/Teams.jsx -->
<g id="node63" class="node">
<title>pages/Teams.jsx</title>
<path fill="none" stroke="#c6c5fe" d="M1247.33,-448.85C1247.33,-448.85 1145.92,-448.85 1145.92,-448.85 1141.96,-448.85 1138,-444.9 1138,-440.94 1138,-440.94 1138,-433.02 1138,-433.02 1138,-429.06 1141.96,-425.1 1145.92,-425.1 1145.92,-425.1 1247.33,-425.1 1247.33,-425.1 1251.29,-425.1 1255.25,-429.06 1255.25,-433.02 1255.25,-433.02 1255.25,-440.94 1255.25,-440.94 1255.25,-444.9 1251.29,-448.85 1247.33,-448.85"/>
<text xml:space="preserve" text-anchor="middle" x="1196.62" y="-431.55" font-family="Arial" font-size="14.00" fill="#c6c5fe">pages/Teams.jsx</text>
</g>
<!-- pages/Teams.jsx&#45;&gt;context/AuthContext.jsx -->
<g id="edge78" class="edge">
<title>pages/Teams.jsx&#45;&gt;context/AuthContext.jsx</title>
<path fill="none" stroke="#757575" d="M1255.59,-439.86C1273.91,-443.41 1293,-450.23 1307,-462.98 1400.74,-548.35 1417.36,-713.69 1420.27,-775.18"/>
<polygon fill="#757575" stroke="#757575" points="1416.77,-775.29 1420.65,-785.15 1423.77,-775.03 1416.77,-775.29"/>
</g>
<!-- services/activity.js -->
<g id="node64" class="node">
<title>services/activity.js</title>
<path fill="none" stroke="#cfffac" d="M192.96,-1719.85C192.96,-1719.85 85.54,-1719.85 85.54,-1719.85 81.58,-1719.85 77.62,-1715.9 77.62,-1711.94 77.62,-1711.94 77.62,-1704.02 77.62,-1704.02 77.62,-1700.06 81.58,-1696.1 85.54,-1696.1 85.54,-1696.1 192.96,-1696.1 192.96,-1696.1 196.92,-1696.1 200.88,-1700.06 200.88,-1704.02 200.88,-1704.02 200.88,-1711.94 200.88,-1711.94 200.88,-1715.9 196.92,-1719.85 192.96,-1719.85"/>
<text xml:space="preserve" text-anchor="middle" x="139.25" y="-1702.55" font-family="Arial" font-size="14.00" fill="#cfffac">services/activity.js</text>
</g>
<!-- services/auth.js -->
<g id="node65" class="node">
<title>services/auth.js</title>
<path fill="none" stroke="#cfffac" d="M185.83,-1761.85C185.83,-1761.85 92.67,-1761.85 92.67,-1761.85 88.71,-1761.85 84.75,-1757.9 84.75,-1753.94 84.75,-1753.94 84.75,-1746.02 84.75,-1746.02 84.75,-1742.06 88.71,-1738.1 92.67,-1738.1 92.67,-1738.1 185.83,-1738.1 185.83,-1738.1 189.79,-1738.1 193.75,-1742.06 193.75,-1746.02 193.75,-1746.02 193.75,-1753.94 193.75,-1753.94 193.75,-1757.9 189.79,-1761.85 185.83,-1761.85"/>
<text xml:space="preserve" text-anchor="middle" x="139.25" y="-1744.55" font-family="Arial" font-size="14.00" fill="#cfffac">services/auth.js</text>
</g>
</g>
</svg>
